<svg id="Big_starAsset_4" data-name="Big starAsset 4" xmlns="http://www.w3.org/2000/svg" width="64.697" height="67.348" viewBox="0 0 64.697 67.348">
    <defs>
        <radialGradient id="radial-gradient" cx=".554" cy=".265" r=".752" gradientTransform="matrix(.985 0 0 1 .007 0)" gradientUnits="objectBoundingBox">
            <stop offset=".41" stop-color="#fffd50"/>
            <stop offset=".85" stop-color="#ed8c37"/>
        </radialGradient>
        <linearGradient id="linear-gradient" x1=".38" y1=".977" x2=".531" y2=".304" gradientUnits="objectBoundingBox">
            <stop offset=".11" stop-color="#fffd62"/>
            <stop offset=".49" stop-color="#fffc0a"/>
            <stop offset=".93" stop-color="#fdbe1b"/>
        </linearGradient>
        <style>
           *
           {
               fill: "red";
           }
            .cls-5{fill:#fff3df}
        </style>
    </defs>
    <g id="Layer_2" data-name="Layer 2">
        <g id="Layer_1" data-name="Layer 1">
            <path id="Path_5847" data-name="Path 5847" d="M59.658 31.172a82.606 82.606 0 0 0-10.916-7.1A122.925 122.925 0 0 0 44.49 5.425c-1.167-3.345-5.39-6.638-8.66-4.9s-6.275 6.223-8.582 9.464a49.262 49.262 0 0 0-3.734 6.4 1.556 1.556 0 0 0-.519 0 116.673 116.673 0 0 0-14.442 0c-3.682.441-7.856.389-8.53 4.46-.415 2.596 2.593 11.827 8.245 18.751a62.694 62.694 0 0 0-5.185 10.007 7.312 7.312 0 0 0 .674 7.778c1.53 2.022 7.286 1.971 10.371 1.037 7.286-2.256 10.164-2.774 12.549-3.63 4.589 3.448 6.638 6.56 11.694 9.671s7.286 3.423 9 2.411c3.215-1.893 4.874-15.064 4.589-19.835 3.578-.415 12.394-2.1 12.7-7.415.313-3.111-2.954-6.767-5.002-8.452z" transform="translate(.015 -.043)" style="fill:#776a50;opacity:.6"/>
            <path id="Path_5848" data-name="Path 5848" d="M56.834 28.813a128.418 128.418 0 0 0-13.249-8.634c-.856-5.393-.493-11.019-2.256-16.205A5.186 5.186 0 0 0 34.173.5c-3.4 1.737-6.015 5.73-8.245 8.738a44.259 44.259 0 0 0-3.528 5.911 1.5 1.5 0 0 0-.493 0 121.861 121.861 0 0 0-13.768 0c-3.5.337-7.493.337-8.141 4.1a10.008 10.008 0 0 0 3.008 6.871c2.359 2.956 4.382 5.419 6.949 8.193A86.938 86.938 0 0 0 3.941 45.8c-.8 2.048-2.334 6.845 0 8.53 1.971 1.322 4.926.57 7.778-.337a97.127 97.127 0 0 0 13.612-6.223A140.974 140.974 0 0 0 35.7 58.4c1.893 1.815 6.249 5.782 8.867 3.837 2.152-1.582 2.126-5.186 2.152-7.493 0-4.434-.233-9-.519-13.431 3.422-.389 6.871-.778 10.371-1.426 2.411-.441 5.186-1.711 5.186-4.537s-2.926-5.007-4.923-6.537z" transform="translate(.038 -.044)" style="fill:url(#linear-gradient)"/>
            <g id="Group_16958" data-name="Group 16958" transform="translate(.038 1.855)">
                <path id="Path_5849" data-name="Path 5849" d="m56.834 27.673-1.763-1.3c2.593 2.593 3.06 5.186 1.893 7.286-1.633 2.8-7.052 3.4-10.371 3.656-4.33.337-1.633 4.071-3.319 7.96-3.319 7.649-12.731 3.578-15.79-.985-2-3.008-9.8 3.06-14.546-2.23a7.052 7.052 0 0 1-1.219-6.456c1.53-4.3-.933-4.978-3.111-7.986-3.422-4.612-5.626-11.068-.155-11.223a119.992 119.992 0 0 1 13.12.337c2.333.156 3.163-4.149 6.482-9.308.8-1.219 3.4-5.367 4.071-6.664a38.892 38.892 0 0 0-6.2 7.338 44.259 44.259 0 0 0-3.526 5.911 1.5 1.5 0 0 0-.493 0 121.862 121.862 0 0 0-13.768 0c-3.5.337-7.493.337-8.141 4.1a10.008 10.008 0 0 0 3.008 6.871c2.361 2.953 4.383 5.42 6.95 8.19a86.938 86.938 0 0 0-6.015 11.486c-.8 2.048-2.334 6.845 0 8.53 1.971 1.322 4.926.57 7.778-.337a97.125 97.125 0 0 0 13.612-6.223A140.971 140.971 0 0 0 35.7 57.258c1.893 1.815 6.249 5.782 8.867 3.837 2.152-1.582 2.126-5.186 2.152-7.493 0-4.434-.233-9-.519-13.431 3.422-.389 6.871-.778 10.371-1.426 2.411-.441 5.186-1.711 5.186-4.537s-2.926-5.008-4.923-6.535z" transform="translate(0 -.76)" style="fill:url(#radial-gradient)"/>
            </g>
            <path id="Path_5850" data-name="Path 5850" d="M56.834 28.813a128.418 128.418 0 0 0-13.249-8.634c-.856-5.393-.493-11.019-2.256-16.205A5.186 5.186 0 0 0 34.173.5c-3.4 1.737-6.015 5.73-8.245 8.738a44.259 44.259 0 0 0-3.528 5.911 1.5 1.5 0 0 0-.493 0 121.861 121.861 0 0 0-13.768 0c-3.5.337-7.493.337-8.141 4.1a10.008 10.008 0 0 0 3.008 6.871c2.359 2.956 4.382 5.419 6.949 8.193A86.938 86.938 0 0 0 3.941 45.8c-.8 2.048-2.334 6.845 0 8.53 1.971 1.322 4.926.57 7.778-.337a97.127 97.127 0 0 0 13.612-6.223A140.974 140.974 0 0 0 35.7 58.4c1.893 1.815 6.249 5.782 8.867 3.837 2.152-1.582 2.126-5.186 2.152-7.493 0-4.434-.233-9-.519-13.431 3.422-.389 6.871-.778 10.371-1.426 2.411-.441 5.186-1.711 5.186-4.537s-2.926-5.007-4.923-6.537zm1.245 7.778a11.253 11.253 0 0 1-4.434 1.063c-2.956.389-5.912.8-8.893 1.037a1.478 1.478 0 0 0-1.115 2.178c.207 3.423.156 6.871.415 10.371a25.928 25.928 0 0 1-.207 7.208c-1.011 4.486-6.482-1.841-7.778-3.215-3.241-3.241-5.86-5.6-8.816-9.1-.674-.674-1.245-.985-1.5-.856-2.593 1.27-9.127 4.174-10.89 5a33.94 33.94 0 0 1-7.338 2.593c-4.9 1.089-.933-6.741-.156-8.427 1.452-3.085 3.319-5.989 4.823-9.049.519-1.089 1.063-1.452.389-2.282a123.443 123.443 0 0 1-8.79-10.786c-.83-1.3-1.348-3.526.441-4.252a77.965 77.965 0 0 1 16.127-.856 12.575 12.575 0 0 0 2.982.311A82.66 82.66 0 0 1 29.065 8.9c1.063-1.4 5.186-8.141 8.375-6.585 1.893.985 2.359 5 2.593 6.9.493 4.1.726 7.778 1.037 12.057 0 .363 1.5 1.089 3.448 2.256a81.622 81.622 0 0 1 12.523 8.453c1.037.856 3.008 3.293 1.037 4.667z" transform="translate(.038 -.044)" style="fill:#c76b08"/>
            <path id="Path_5851" data-name="Path 5851" class="cls-5" d="M1.414 11.525S.844 10.41 4.5 10.1a56.782 56.782 0 0 1 12.964.493l4.045.493c1.5-2.593 2.9-5.7 2.9-5.7l-2.9 4.2a126.267 126.267 0 0 0-15.557-.265C2.97 9.269.74 10.358 1.414 11.525z" transform="translate(2.098 8.454)"/>
            <path id="Path_5852" data-name="Path 5852" class="cls-5" d="M10.37 11.745s3.915-7.234 8.323-5.186 4.719 8.375 5.186 12.368c-.363-3.708-.207-5.03-.83-12.368-.57-6.9-3.993-6.819-7.778-2.074a38.892 38.892 0 0 0-4.9 7.26z" transform="translate(16.555 1.675)"/>
            <path id="Path_5853" data-name="Path 5853" class="cls-5" d="M15.4 6.92v5.7s13.949 6.715 16.024 8.712 2.385 3.267 1.815 4.174c0 0 2-.985-.907-4.149s-16.62-10.786-16.62-10.786z" transform="translate(24.567 10.907)"/>
            <path id="Path_5854" data-name="Path 5854" class="cls-5" d="M4.459 10.34a51.415 51.415 0 0 0 7.778 6.482s-10.37 14.442-9.93 18.461c0 0-1.115-1.633 1.633-6.612s6.2-11.694 6.2-11.694S6.223 12.6 4.459 10.34z" transform="translate(3.357 16.355)"/>
        </g>
    </g>
</svg>
