<svg xmlns="http://www.w3.org/2000/svg" width="109" height="109" viewBox="0 0 109 109">
    <g data-name="Group 17546" transform="translate(-127 -206)">
        <circle data-name="Ellipse 899" cx="54.5" cy="54.5" r="54.5" transform="translate(127 206)" style="fill:#fff"/>
        <path data-name="Icon awesome-check-circle" d="M95.411 47.987A47.424 47.424 0 1 1 47.987.563a47.424 47.424 0 0 1 47.424 47.424zM42.5 73.1l35.187-35.188a3.06 3.06 0 0 0 0-4.327l-4.327-4.327a3.06 3.06 0 0 0-4.327 0l-28.7 28.7-13.4-13.4a3.06 3.06 0 0 0-4.327 0l-4.327 4.327a3.06 3.06 0 0 0 0 4.327L38.174 73.1a3.06 3.06 0 0 0 4.327 0z" transform="translate(133.438 212.438)" style="fill:#4caf50"/>
    </g>
</svg>
