<svg xmlns="http://www.w3.org/2000/svg" xmlns:xlink="http://www.w3.org/1999/xlink" width="360" height="122" viewBox="0 0 360 122">
  <defs>
    <clipPath id="clip-path">
      <rect id="Rectangle_12142" data-name="Rectangle 12142" width="360" height="122" transform="translate(0 518)" fill="#fff"/>
    </clipPath>
    <clipPath id="clip-path-2">
      <rect id="Rectangle_11858" data-name="Rectangle 11858" width="70.788" height="64.893" fill="none"/>
    </clipPath>
    <clipPath id="clip-path-4">
      <rect id="Rectangle_11852" data-name="Rectangle 11852" width="1.361" height="3.161" fill="none"/>
    </clipPath>
    <clipPath id="clip-path-5">
      <rect id="Rectangle_11853" data-name="Rectangle 11853" width="1.523" height="3.862" fill="none"/>
    </clipPath>
    <clipPath id="clip-path-6">
      <rect id="Rectangle_11854" data-name="Rectangle 11854" width="21.308" height="6.788" fill="none"/>
    </clipPath>
    <clipPath id="clip-path-7">
      <rect id="Rectangle_11855" data-name="Rectangle 11855" width="6.175" height="4.88" fill="none"/>
    </clipPath>
    <clipPath id="clip-path-8">
      <rect id="Rectangle_11856" data-name="Rectangle 11856" width="6.316" height="2.403" fill="none"/>
    </clipPath>
    <clipPath id="clip-path-9">
      <rect id="Rectangle_11884" data-name="Rectangle 11884" width="146.447" height="84.601" fill="none"/>
    </clipPath>
    <clipPath id="clip-path-10">
      <rect id="Rectangle_11883" data-name="Rectangle 11883" width="146.447" height="84.6" fill="none"/>
    </clipPath>
    <clipPath id="clip-path-11">
      <rect id="Rectangle_11867" data-name="Rectangle 11867" width="144.87" height="82.246" fill="none"/>
    </clipPath>
    <clipPath id="clip-path-12">
      <rect id="Rectangle_11868" data-name="Rectangle 11868" width="126.716" height="42.192" fill="none"/>
    </clipPath>
    <clipPath id="clip-path-13">
      <rect id="Rectangle_11869" data-name="Rectangle 11869" width="9.121" height="2.682" fill="none"/>
    </clipPath>
    <clipPath id="clip-path-14">
      <rect id="Rectangle_11870" data-name="Rectangle 11870" width="5.9" height="5.722" fill="none"/>
    </clipPath>
    <clipPath id="clip-path-15">
      <rect id="Rectangle_11871" data-name="Rectangle 11871" width="6.269" height="5.355" fill="none"/>
    </clipPath>
    <clipPath id="clip-path-16">
      <rect id="Rectangle_11872" data-name="Rectangle 11872" width="5.367" height="8.34" fill="none"/>
    </clipPath>
    <clipPath id="clip-path-17">
      <rect id="Rectangle_11873" data-name="Rectangle 11873" width="2.838" height="3.279" fill="none"/>
    </clipPath>
    <clipPath id="clip-path-18">
      <rect id="Rectangle_11874" data-name="Rectangle 11874" width="0.819" height="2.798" fill="none"/>
    </clipPath>
    <clipPath id="clip-path-19">
      <rect id="Rectangle_11875" data-name="Rectangle 11875" width="2.561" height="1.98" fill="none"/>
    </clipPath>
    <clipPath id="clip-path-20">
      <rect id="Rectangle_11876" data-name="Rectangle 11876" width="2.453" height="2.304" fill="none"/>
    </clipPath>
    <clipPath id="clip-path-21">
      <rect id="Rectangle_11877" data-name="Rectangle 11877" width="3.403" height="4.721" fill="none"/>
    </clipPath>
    <clipPath id="clip-path-22">
      <rect id="Rectangle_11878" data-name="Rectangle 11878" width="2.316" height="1.863" fill="none"/>
    </clipPath>
    <clipPath id="clip-path-23">
      <rect id="Rectangle_11879" data-name="Rectangle 11879" width="3.966" height="4.311" fill="none"/>
    </clipPath>
    <clipPath id="clip-path-24">
      <rect id="Rectangle_11880" data-name="Rectangle 11880" width="1.645" height="1.645" fill="none"/>
    </clipPath>
    <clipPath id="clip-path-25">
      <rect id="Rectangle_11881" data-name="Rectangle 11881" width="10.865" height="3.894" fill="none"/>
    </clipPath>
    <clipPath id="clip-path-26">
      <rect id="Rectangle_11882" data-name="Rectangle 11882" width="2.805" height="2.805" fill="none"/>
    </clipPath>
    <clipPath id="clip-path-27">
      <rect id="Rectangle_11895" data-name="Rectangle 11895" width="42.939" height="34.047" fill="none"/>
    </clipPath>
    <clipPath id="clip-path-28">
      <path id="Path_21313" data-name="Path 21313" d="M16.552.776a17.023,17.023,0,0,0,1.485,32.882q.667.146,1.344.236a17,17,0,0,0,2.211.153h.121a16.9,16.9,0,0,0,6.968-1.52,17.167,17.167,0,0,0,2.9-1.68A17.023,17.023,0,0,0,35.464,7.09c-.232-.321-.474-.633-.722-.935A17.034,17.034,0,0,0,16.552.776" fill="none"/>
    </clipPath>
    <linearGradient id="linear-gradient" x1="-0.02" y1="0.919" x2="0.005" y2="0.919" gradientUnits="objectBoundingBox">
      <stop offset="0" stop-color="#dc8d84"/>
      <stop offset="1" stop-color="#d171a7"/>
    </linearGradient>
    <clipPath id="clip-path-30">
      <rect id="Rectangle_11894" data-name="Rectangle 11894" width="40.037" height="12.564" transform="translate(1.639 12.219)" fill="none"/>
    </clipPath>
    <clipPath id="clip-path-31">
      <path id="Path_21314" data-name="Path 21314" d="M41.677,12.76C28.6,16.809,14.956,20.925,1.822,24.783l-.183-.528c13.078-4.1,26.736-8.217,39.9-12.035q.069.27.14.54" fill="none"/>
    </clipPath>
    <linearGradient id="linear-gradient-2" x1="-0.016" y1="1.159" x2="0.008" y2="1.159" gradientUnits="objectBoundingBox">
      <stop offset="0" stop-color="#2f1e44"/>
      <stop offset="1" stop-color="#793c74"/>
    </linearGradient>
    <clipPath id="clip-path-32">
      <rect id="Rectangle_11908" data-name="Rectangle 11908" width="77.136" height="49.707" fill="none"/>
    </clipPath>
  </defs>
  <g id="Bottom_bar" data-name="Bottom bar" transform="translate(0 -518)" clip-path="url(#clip-path)">
    <g id="Group_19446" data-name="Group 19446">
      <path id="Subtraction_3" data-name="Subtraction 3" d="M2884.7,9950.5h-359v-86.872c8.607-10.371,17.608-15.412,27.517-15.412a32.893,32.893,0,0,1,9.786,1.57,29.1,29.1,0,0,1,8.626,4.229,25.361,25.361,0,0,1,5.754,5.855c3.094,4.332,4.877,9.292,6.766,14.544,4.042,11.241,8.221,22.86,26.149,27.523a44.651,44.651,0,0,0,11.389,1.456c11.208,0,21.424-3.982,32.239-8.2l.276-.107q1.172-.457,2.348-.913a74.758,74.758,0,0,1,26.907-5.436,56.531,56.531,0,0,1,12.972,1.481,54.605,54.605,0,0,1,12.723,4.751,23,23,0,0,1,7.4,6.279,64.963,64.963,0,0,1,5.167,8.021c2.695,4.672,5.48,9.5,10.112,12.88a24.367,24.367,0,0,0,14.477,4.216,35.085,35.085,0,0,0,15.418-3.611c8.053-4.1,9.769-11.9,11.585-20.162,1.7-7.745,3.464-15.754,10.882-20.565a13.736,13.736,0,0,1,7.713-2.213c4.822,0,10.032,2.063,15.07,4.058l.011,0,.073.029c5.077,2.011,10.326,4.09,15.277,4.09a14.4,14.4,0,0,0,7.3-1.86c9.518-5.4,11.876-14.275,13.957-22.1,1.7-6.4,3.17-11.933,8.239-13.966a13.567,13.567,0,0,1,5.083-.953c4.088,0,8.688,1.628,13.67,4.838a72.708,72.708,0,0,1,14.108,12.412V9950.5Zm-329.878-85.126a21.5,21.5,0,0,0-16.46,7.855c-3.336,4.182-5.336,10.888-2.285,16.441,2.414,4.389,7.769,7.518,14.694,8.586a31.855,31.855,0,0,0,4.817.382,20.236,20.236,0,0,0,10.97-2.827,15.873,15.873,0,0,0,6.353-18.02c-2.124-6.408-8.635-11.462-15.835-12.289A19.5,19.5,0,0,0,2554.824,9865.375Z" transform="translate(-2525.202 -9311)" fill="#029acb"/>
      <g id="Group_19443" data-name="Group 19443">
        <g id="Group_19147" data-name="Group 19147" transform="translate(0 573.107)">
          <g id="Group_18796" data-name="Group 18796" clip-path="url(#clip-path-2)">
            <g id="Group_18795" data-name="Group 18795">
              <g id="Group_18794" data-name="Group 18794" clip-path="url(#clip-path-2)">
                <path id="Path_20872" data-name="Path 20872" d="M76.614,54.832a15.959,15.959,0,0,0,.744,9.3,11.653,11.653,0,0,0,17.634,4.509,11.35,11.35,0,0,0,4.417-8.929,18.492,18.492,0,0,0-2.651-8.524,71.82,71.82,0,0,1-4.2-8,12.592,12.592,0,0,1-.647-8.134,27.7,27.7,0,0,0-15.3,19.787" transform="translate(-37.185 -17.088)" fill="#80c7f2"/>
                <path id="Path_20873" data-name="Path 20873" d="M76.666,50.711a.9.9,0,0,0,.153.084,1.144,1.144,0,0,0,.822,0,1.937,1.937,0,0,0,.795-.6c.216-.256.393-.541.589-.812a6.641,6.641,0,0,1,2.114-1.879l.048-.027a5.065,5.065,0,0,0-4.084.982,2.218,2.218,0,0,0-.8,1.048,1.091,1.091,0,0,0,.359,1.2" transform="translate(-37.182 -23.106)" fill="#80c7f2"/>
                <path id="Path_20874" data-name="Path 20874" d="M108.289,44.519c0,.02,0,.042,0,.061a9.728,9.728,0,0,0,.492,3.436,4.691,4.691,0,0,0,2.277,2.65,2.365,2.365,0,0,0,1.208.256,1.462,1.462,0,0,0,.756-.285,1.112,1.112,0,0,0,.281-.308,1.348,1.348,0,0,0,0-1.276,2.584,2.584,0,0,0-.917-.964c-.375-.25-.783-.444-1.173-.67a8.018,8.018,0,0,1-2.906-2.914Z" transform="translate(-52.8 -21.701)" fill="#80c7f2"/>
                <path id="Path_20875" data-name="Path 20875" d="M118,74.795h0Z" transform="translate(-57.534 -36.469)" fill="#2a2e38"/>
                <path id="Path_20876" data-name="Path 20876" d="M78.826,80.862s1.862,8.342,9.429,9.756" transform="translate(-38.435 -39.427)" fill="none" stroke="#fff" stroke-linecap="round" stroke-miterlimit="10" stroke-width="2.616"/>
                <path id="Path_20877" data-name="Path 20877" d="M53.286,93.82s.55-2.854-4.372-3.786-7.771-2.683-12.056-7.462-6.179-7.147-11.226-7.79C17.834,76.979,0,72.175,0,72.175V90.947s18.938-5.43,26.389.315c5.119,3.251,14.986,9.421,19.046,8.776S56.56,97.4,56.943,96.971a56.173,56.173,0,0,1,7.993-7.033s4.743-2.568,5.365-2.813-.788-3.04-3.979-2.018a27.118,27.118,0,0,0-7.716,3.976,26.758,26.758,0,0,0-5.319,4.738" transform="translate(0 -35.192)" fill="#ffd4a6"/>
                <g id="Group_18781" data-name="Group 18781" transform="translate(42.395 56.69)" opacity="0.17" style="mix-blend-mode: multiply;isolation: isolate">
                  <g id="Group_18780" data-name="Group 18780">
                    <g id="Group_18779" data-name="Group 18779" clip-path="url(#clip-path-4)">
                      <path id="Path_20878" data-name="Path 20878" d="M83.168,110.876a4.314,4.314,0,0,0-.383,2.549.5.5,0,0,0,.231.3.514.514,0,0,0,.387.051.509.509,0,0,0,.3-.231.587.587,0,0,0,.05-.387c-.008-.057-.007-.051,0,.02,0-.026-.006-.051-.008-.076s-.007-.076-.01-.114c-.006-.089-.008-.179-.008-.268s0-.179.012-.267c0-.038.008-.076.011-.115.007-.057.006-.051,0,.02,0-.019.006-.038.009-.057a3.768,3.768,0,0,1,.116-.5c.027-.086.056-.17.088-.253.009-.023.042-.14.008-.022a1.033,1.033,0,0,1,.065-.139.5.5,0,0,0-.868-.507" transform="translate(-82.736 -110.633)" fill="#e5b570"/>
                    </g>
                  </g>
                </g>
                <g id="Group_18784" data-name="Group 18784" transform="translate(43.173 56.733)" opacity="0.17" style="mix-blend-mode: multiply;isolation: isolate">
                  <g id="Group_18783" data-name="Group 18783">
                    <g id="Group_18782" data-name="Group 18782" clip-path="url(#clip-path-5)">
                      <path id="Path_20879" data-name="Path 20879" d="M84.793,111.082a20.819,20.819,0,0,0-.535,2.995.5.5,0,0,0,.5.5.517.517,0,0,0,.5-.5q.02-.191.044-.382c0-.015.021-.162.011-.085q.011-.081.023-.163c.034-.235.072-.47.115-.7q.128-.7.307-1.394a.5.5,0,0,0-.969-.267" transform="translate(-84.255 -110.717)" fill="#e5b570"/>
                    </g>
                  </g>
                </g>
                <g id="Group_18787" data-name="Group 18787" transform="translate(31.176 55.377)" opacity="0.17" style="mix-blend-mode: multiply;isolation: isolate">
                  <g id="Group_18786" data-name="Group 18786">
                    <g id="Group_18785" data-name="Group 18785" clip-path="url(#clip-path-6)">
                      <path id="Path_20880" data-name="Path 20880" d="M81.549,113.624a5.226,5.226,0,0,1-2.783.084q-1.42-.2-2.832-.453c-.932-.166-1.868-.331-2.789-.55a6.738,6.738,0,0,1-2.473-1.256,17.887,17.887,0,0,0-9.346-3.375c-.646-.044-.644.962,0,1.005a16.911,16.911,0,0,1,5.159,1.174,16.516,16.516,0,0,1,2.412,1.213c.75.456,1.423,1.019,2.164,1.483a7.409,7.409,0,0,0,2.523.877q1.467.3,2.943.547c.9.15,1.8.289,2.708.405a4.985,4.985,0,0,0,2.582-.184c.59-.242.332-1.215-.267-.969" transform="translate(-60.842 -108.072)" fill="#e5b570"/>
                    </g>
                  </g>
                </g>
                <g id="Group_18790" data-name="Group 18790" transform="translate(62.582 51.636)" opacity="0.17" style="mix-blend-mode: multiply;isolation: isolate">
                  <g id="Group_18789" data-name="Group 18789">
                    <g id="Group_18788" data-name="Group 18788" clip-path="url(#clip-path-7)">
                      <path id="Path_20881" data-name="Path 20881" d="M122.986,105.5a11.7,11.7,0,0,1,1.066-1.1,8.6,8.6,0,0,1,1.275-.9c.934-.565,1.809-1.221,2.741-1.787.552-.336.048-1.206-.507-.869-.959.583-1.862,1.252-2.821,1.835a10.293,10.293,0,0,0-2.465,2.113.515.515,0,0,0,0,.711.507.507,0,0,0,.711,0" transform="translate(-122.132 -100.77)" fill="#edcf8e"/>
                    </g>
                  </g>
                </g>
                <g id="Group_18793" data-name="Group 18793" transform="translate(62.739 49.664)" opacity="0.17" style="mix-blend-mode: multiply;isolation: isolate">
                  <g id="Group_18792" data-name="Group 18792">
                    <g id="Group_18791" data-name="Group 18791" clip-path="url(#clip-path-8)">
                      <path id="Path_20882" data-name="Path 20882" d="M128.731,98.69a2.81,2.81,0,0,0-2.579-1.755c-1.242-.114-2.38.594-3.47,1.084a.506.506,0,0,0-.18.688.514.514,0,0,0,.688.18,6.85,6.85,0,0,1,2.73-.96,1.881,1.881,0,0,1,1.842,1.03.516.516,0,0,0,.618.351.507.507,0,0,0,.351-.618" transform="translate(-122.438 -96.923)" fill="#e5b570"/>
                    </g>
                  </g>
                </g>
                <path id="Path_20883" data-name="Path 20883" d="M127.32,102.9l3.85-2.337s-.181-.459-.873-.145-2.931,1.566-2.977,2.482" transform="translate(-62.08 -48.912)" fill="#f37038"/>
                <path id="Path_20884" data-name="Path 20884" d="M95.189,115.016s-.56-2.655.978-3.875a9.829,9.829,0,0,1,3.726,1.221,1.855,1.855,0,0,1,.773,1.958,1.791,1.791,0,0,1-1.7,1.283,26.293,26.293,0,0,1-3.781-.587" transform="translate(-46.365 -54.191)" fill="#f37038"/>
                <path id="Path_20885" data-name="Path 20885" d="M130.186,102.939l4.079-1.909s-.131-.476-.853-.238-3.082,1.242-3.227,2.147" transform="translate(-63.477 -49.112)" fill="#f37038"/>
                <path id="Path_20886" data-name="Path 20886" d="M86.655.026l8.2,2.068a3.408,3.408,0,0,1,6,1.138l8.407,1.08s.881.167.956.747l-.6,3.151s-.1.475-1.092.245L99.978,6.579a3.419,3.419,0,0,1-1.086.726l-.739,3.9,1.489.282-.395,9.705-4.722-.909L89.8,19.4l3.185-9.176,1.488.282.737-3.888a3.437,3.437,0,0,1-.759-1.085L85.821,4.15c-1-.148-.926-.628-.926-.628l.6-3.151c.281-.512,1.163-.345,1.163-.345" transform="translate(-41.393 0)" fill="#fff"/>
              </g>
            </g>
          </g>
        </g>
        <g id="Group_19150" data-name="Group 19150" transform="translate(133.505 596.984) rotate(-1)">
          <g id="Group_18852" data-name="Group 18852" clip-path="url(#clip-path-9)">
            <g id="Group_18851" data-name="Group 18851" transform="translate(0 0)">
              <g id="Group_18850" data-name="Group 18850" clip-path="url(#clip-path-10)">
                <g id="Group_18804" data-name="Group 18804" transform="translate(0 2.354)" style="mix-blend-mode: multiply;isolation: isolate">
                  <g id="Group_18803" data-name="Group 18803">
                    <g id="Group_18802" data-name="Group 18802" clip-path="url(#clip-path-11)">
                      <path id="Path_21213" data-name="Path 21213" d="M.006,46.9c.053-.611.658-.978,1.049-1.378q.659-.673,1.326-1.338A6.442,6.442,0,0,1,3.959,42.7a1.4,1.4,0,0,1,.215-.081,1.813,1.813,0,0,1,.4-.063c1.53-1.616,2.778-2.92,5.006-5.242-4.908-1.539-4.862-2.364-4.862-2.364.472.408,1.943.3,2.525.271A9.573,9.573,0,0,0,9.584,34.8a10.749,10.749,0,0,0,4.007-2.088,24.22,24.22,0,0,0,2.362-1.956C25.367,19.05,44.166,4.5,44.166,4.5,75.1-4.362,88.737,18.165,88.737,18.165c10.726-6.157,19.942-6.2,28.632-5.116,6.495.808,16.813,6.363,21.509,11.353l.456.267c4.474,1.419,5.686,1.58,5.522,3.424-.042.454-.71,6.625-.983,6.646a3.673,3.673,0,0,1-.6-.009c-.955,9.117-2.84,26.183-4.713,37.767a1.04,1.04,0,0,1,.133.123c.749.833.379,2.1.19,3.078a30.984,30.984,0,0,1-1.927,6.364,4.905,4.905,0,0,1-.443.909c-1.083,1.735-3,2.11-4.963,1.3-1.912-.794-3.553-1.223-5.249-2.1a14.642,14.642,0,0,1-3.772-2.251c-3.368-3.206-8.451-4.437-12.779-5.736-6.97-2.091-14.077-3.769-21.145-5.495a67.434,67.434,0,0,0-15.847-1.2c-4.984,1.365-9.917-2.947-13.959-5.015a83.064,83.064,0,0,0-12.573-5.22c-12.749-4.032-27.451-9.165-41-7.988a17.021,17.021,0,0,1-4.241.292C.07,49.4.149,48.725.1,48.057c0-.065-.012-.131-.019-.2a4.862,4.862,0,0,1-.079-.96" transform="translate(0 -2.433)" fill="#d7d7d6"/>
                    </g>
                  </g>
                </g>
                <path id="Path_21214" data-name="Path 21214" d="M4.737,46.806C6.885,44.174,44.474,5.477,44.474,5.477s20.137-13.39,43.96,11.286l1.706,1.987s32.541-6.321,45.831,1.481c-.643.1,2.183,2.007,2.574,1.695l7.072,4.145S141.039,73,137.915,81l-2.93.808L128.3,79.946c-3.208-.9-6.518-3.173-9.608-4.462a120.437,120.437,0,0,0-26.73-7.832q-1.888-.313-3.783-.582-1.92-.273-3.848-.493t-3.88-.386c-1.289-.106-2.579-.2-3.87-.254-1.259-.056-2.521-.118-3.781-.093a3.049,3.049,0,0,0-.321.008.636.636,0,0,0-.21.07c-.165.088-.33.177-.5.261a3.346,3.346,0,0,1-1.157.424,8.322,8.322,0,0,1-2.134-.243,7.082,7.082,0,0,1-2.116-.743c-.837-.465-1.188-1.323-1.742-2.055-.3-.39-.592-.781-.918-1.147a25.546,25.546,0,0,0-2.818-2.653A41.554,41.554,0,0,0,49.8,53.49a68.578,68.578,0,0,0-10.136-3.105c-19.647-4.5-34.7-1.741-34.7-1.741s-2.378.8-.229-1.838" transform="translate(-0.125 -0.061)" fill="#947c5a"/>
                <path id="Path_21215" data-name="Path 21215" d="M4.709,45.664c2.149-2.632,39.738-41.33,39.738-41.33S64.583-9.057,88.406,15.62l1.706,1.987s35.2-6.836,47.329,2.486c-.452.01,1.551,1.272,1.574.982l6.574,3.853s-4.58,46.931-7.7,54.933l-2.93.809L128.276,78.8c-3.208-.9-6.518-3.173-9.608-4.462a120.438,120.438,0,0,0-26.73-7.832q-1.888-.313-3.783-.582-1.92-.273-3.848-.493t-3.88-.386c-1.289-.106-2.579-.2-3.87-.254-1.259-.056-2.521-.118-3.781-.093a3.053,3.053,0,0,0-.321.008.636.636,0,0,0-.21.07c-.165.088-.33.177-.5.261a3.346,3.346,0,0,1-1.157.424,8.322,8.322,0,0,1-2.134-.243,7.082,7.082,0,0,1-2.116-.743c-.837-.465-1.188-1.323-1.742-2.055-.3-.39-.592-.781-.918-1.147a25.545,25.545,0,0,0-2.818-2.653A41.554,41.554,0,0,0,49.77,52.348a68.462,68.462,0,0,0-10.136-3.105c-19.647-4.5-34.7-1.741-34.7-1.741s-2.378.8-.229-1.838" transform="translate(-0.124 -0.023)" fill="#b8996e"/>
                <path id="Path_21216" data-name="Path 21216" d="M128.183,79.877a4.018,4.018,0,0,1,2.465-2.7c1.112-.345,6.964,4.493,7.418,2.446.3-1.35.44-2.183.7-3.542.237-1.255.5-3.193,1.5-4.107.791-.722,3.543-.176,4.193.546.749.833.379,2.1.19,3.078a49.53,49.53,0,0,1-1.886,8.023,5.092,5.092,0,0,1-.443.909c-1.084,1.735-3,2.109-4.964,1.3-1.911-.793-3.552-1.223-5.248-2.1-1.506-.784-3.891-1.4-4.008-2.974a2.7,2.7,0,0,1,.09-.874" transform="translate(-4.18 -2.338)" fill="#e6b332"/>
                <path id="Path_21217" data-name="Path 21217" d="M142.312,84.813c-1.084,1.735-3,2.11-4.965,1.3-1.91-.794-3.552-1.223-5.247-2.105-1.507-.784-3.891-1.4-4.009-2.974a2.729,2.729,0,0,1,.091-.875c8.1,4.625,12.128,5.2,14.129,4.658" transform="translate(-4.18 -2.616)" fill="#dfad33"/>
                <path id="Path_21218" data-name="Path 21218" d="M130.651,77.181c1.112-.344,6.963,4.493,7.418,2.446.3-1.35.44-2.182.7-3.542.237-1.255.5-3.193,1.5-4.107.79-.722,3.542-.176,4.193.547.749.833.378,2.1.188,3.078a49.322,49.322,0,0,1-1.886,8.022,5.026,5.026,0,0,1-.442.909c-2,.542-6.028-.033-14.129-4.658a4.02,4.02,0,0,1,2.465-2.7" transform="translate(-4.183 -2.338)" fill="#e6b332"/>
                <path id="Path_21219" data-name="Path 21219" d="M3.5,49.03c0-.065-.012-.132-.019-.2a4.856,4.856,0,0,1-.079-.96c.052-.61.658-.977,1.049-1.377.438-.449.883-.894,1.326-1.338a6.429,6.429,0,0,1,1.579-1.49,1.509,1.509,0,0,1,.215-.081,6.036,6.036,0,0,1,2.543.314q-.911.794-1.819,1.588c-.2.172-.756.865-1.02.89,1.554-.146,3.1-.342,4.658-.461.2-.015.618-.126.783.01.236.194.206.934.24,1.216s.06.57.084.855c.025.308.041.247.07.554.059.625.06,1.02-.638,1.173a30.114,30.114,0,0,1-3.848.5,17.068,17.068,0,0,1-4.241.293c-.916-.149-.837-.825-.881-1.494" transform="translate(-0.111 -1.42)" fill="#ebb631"/>
                <path id="Path_21220" data-name="Path 21220" d="M3.4,47.873c.052-.61.657-.978,1.048-1.377.439-.449.884-.895,1.326-1.339a6.459,6.459,0,0,1,1.579-1.489,1.4,1.4,0,0,1,.215-.081,6.04,6.04,0,0,1,2.544.314q-.911.794-1.82,1.588c-.2.171-.756.865-1.019.89,1.553-.146,3.1-.342,4.657-.461.2-.015.618-.126.783.01.236.194.206.934.241,1.216s.06.57.083.854l-9.559.834a4.788,4.788,0,0,1-.078-.96" transform="translate(-0.111 -1.42)" fill="#ebb631"/>
                <path id="Path_21221" data-name="Path 21221" d="M3.5,49.181c0-.065-.012-.132-.019-.2l9.559-.833c.025.308.041.247.07.554.059.625.06,1.02-.638,1.173a30.113,30.113,0,0,1-3.848.5,17.068,17.068,0,0,1-4.241.293c-.916-.149-.837-.825-.881-1.494" transform="translate(-0.114 -1.571)" fill="#dfad33"/>
                <g id="Group_18807" data-name="Group 18807" transform="translate(6.826 38.301)" style="mix-blend-mode: multiply;isolation: isolate">
                  <g id="Group_18806" data-name="Group 18806">
                    <g id="Group_18805" data-name="Group 18805" clip-path="url(#clip-path-12)">
                      <path id="Path_21222" data-name="Path 21222" d="M8.136,47.036s8.751-11.64,34.33-5.807C64.932,46.351,67.853,60.62,68.253,64.891c2.229-2.236,10.686-8.247,35.839-5.982,30.666,2.76,29.678,22.876,29.678,22.876l-3.527-1.021c-4.574-5.177-9.948-9.391-16.562-11.609-13.742-4.61-29.941-5.128-44.251-2.956a10.7,10.7,0,0,1-1.111-.2c0,.015,0,.033,0,.045l-.03-.052c-.641-.163-.716-.3-.716-.3a3.46,3.46,0,0,1,.294-.385c-2.831-4.35-19.359-26.24-60.06-16.6l-.751-.535Z" transform="translate(-7.057 -39.593)" fill="#d7d7d6"/>
                      <path id="Path_21223" data-name="Path 21223" d="M8.136,47.036s8.751-11.64,34.33-5.807C64.932,46.351,67.853,60.62,68.253,64.891c2.229-2.236,10.686-8.247,35.839-5.982,30.666,2.76,29.678,22.876,29.678,22.876l-3.527-1.021c-4.574-5.177-9.948-9.391-16.562-11.609-13.742-4.61-29.941-5.128-44.251-2.956a10.7,10.7,0,0,1-1.111-.2c0,.015,0,.033,0,.045l-.03-.052c-.641-.163-.716-.3-.716-.3a3.46,3.46,0,0,1,.294-.385c-2.831-4.35-19.359-26.24-60.06-16.6l-.751-.535Z" transform="translate(-7.057 -39.593)" fill="#d7d7d6"/>
                    </g>
                  </g>
                </g>
                <path id="Path_21224" data-name="Path 21224" d="M68.278,64.327S52.853,36.314,7.766,46.99l-.751-.536,1.079-1.131s8.751-11.64,34.33-5.808S68.247,63.038,68.278,64.327" transform="translate(-0.229 -1.236)" fill="#e5e2c4"/>
                <path id="Path_21225" data-name="Path 21225" d="M70.344,64.973s.145.274,1.855.509c14.311-2.172,30.509-1.654,44.251,2.956,6.614,2.218,11.989,6.432,16.562,11.609l3.527,1.022s.989-20.116-29.678-22.878-36.518,6.782-36.518,6.782" transform="translate(-2.295 -1.883)" fill="#e5e2c4"/>
                <path id="Path_21226" data-name="Path 21226" d="M68.011,53.009s-7.547-7.19-29.766-11.261C14.416,37.381,7.016,46.19,7.016,46.19l13.806-16s40.431-5.034,46.736,19.33Z" transform="translate(-0.229 -0.971)" fill="#d6d3b8"/>
                <path id="Path_21227" data-name="Path 21227" d="M145.129,22.818c-.579-.187-.617.919.148,1.962a23.95,23.95,0,0,0,1.637,2.588c.636.708-.459,2.989-.341,3.748.211,1.351,2.354,2.03,3.6,1.934.274-.021.942-6.192.983-6.646.171-1.912-1.136-2.014-6.025-3.585" transform="translate(-4.722 -0.744)" fill="#ebb631"/>
                <path id="Path_21228" data-name="Path 21228" d="M90.526,15.732S76.893-6.795,45.955,2.064c0,0-18.8,14.551-28.212,26.261a24.344,24.344,0,0,1-2.362,1.957,10.778,10.778,0,0,1-4.007,2.088,9.587,9.587,0,0,1-2.342.412c-.581.026-2.053.138-2.525-.271,0,0,6.213,5.38,19.3,5.248s37.423,7.758,42.456,25.333c0,0,21.478-41.811,22.265-47.359" transform="translate(-0.212 0)" fill="#fff"/>
                <path id="Path_21229" data-name="Path 21229" d="M70.344,63.431c.952-1.955,7.1-2.956,8.988-3.417A68.822,68.822,0,0,1,90.12,57.977c14.068-1.411,31.653,3.277,41.391,14.085a40.552,40.552,0,0,1,5.029,7.465s8.443-47.21,8.682-52.561S129.93,12.036,121.24,10.956s-17.905-1.042-28.632,5.116c0,0-16.47,35.422-22.264,47.359" transform="translate(-2.295 -0.34)" fill="#fffdef"/>
                <path id="Path_21230" data-name="Path 21230" d="M140.65,27.865l-2.888,15.828s-22.541-19.545-48.289-9.521l6.3-13.793S119.21,6.172,140.65,27.865" transform="translate(-2.92 -0.516)" fill="#9eccf0"/>
                <path id="Path_21231" data-name="Path 21231" d="M89.422,34.357l3.357-7.347a1.054,1.054,0,0,1,.645.211c1.309-.958,2.8.916,2.8.916,2.094-1.961,3.645-.088,3.645-.088a2.649,2.649,0,0,1,3.357-.023s-.007-.289,1.426-.9,2.973.854,2.973.854A4.428,4.428,0,0,1,110.64,25.7c2.188-.458,2.831,2.189,2.831,2.189a4.013,4.013,0,0,1,2.646-.7c1.28.258.575,2.186.575,2.186,5.812-1.414,5.353,1.144,5.353,1.144a5.228,5.228,0,0,0,1.784-.449c.974-.43,1.224.317,1.224.317,2.569-1.451,2.98,1.144,2.98,1.144.667-1.116,2.748-1.225,4.095-.62s1.465,3.091,1.465,3.091c3.172-.483,3.113,1.835,3.113,1.835a2.441,2.441,0,0,1,2.44.171l-1.435,7.865S115.17,24.333,89.422,34.357" transform="translate(-2.918 -0.837)" fill="#88bc5b"/>
                <path id="Path_21232" data-name="Path 21232" d="M108.078,21.449c0-.042,3.1-.509,3.333.534.235,1.011-.664,1.5-2.636,1.43a35,35,0,0,0-8.364.964c0-.006-1.215.177-.731-1.6s1.887-1.4,2.562-1.187c0,.02.263-2.626,2.754-1.948.185.072.37.144.554.221,0,0,.347-1.926,1.753-1.39,1.4.554,2.534,1.764.776,2.981" transform="translate(-3.249 -0.6)" fill="#fff"/>
                <path id="Path_21233" data-name="Path 21233" d="M136.232,27.782s3.487,2.565-1.466.876c-1.207-.413-2.083-1.394-2.95-1.739-2.692-1.07-3.913-1.256-3.346-2.052.751-1.052,1.526-1.071,2.252-.442a1.44,1.44,0,0,1,2.572-.039s2.326-.532,1.848,1.1c0,0,2.335.332,1.09,2.3" transform="translate(-4.188 -0.77)" fill="#fff"/>
                <path id="Path_21234" data-name="Path 21234" d="M130.922,34.281c.017,0-.459-.7-.511-.764-.241-.315-.511-.727-.956-.711a.836.836,0,0,0-.758.952c.2.825,1.636.589,2.225.523" transform="translate(-4.199 -1.071)" fill="#f6df38"/>
                <path id="Path_21235" data-name="Path 21235" d="M130.012,33.906a3.885,3.885,0,0,0,1.211,1.414c.654.4,1.122-.279.919-.895-.137-.418-.44-.509-.855-.546a6.42,6.42,0,0,1-1.275.026" transform="translate(-4.242 -1.106)" fill="#f6df38"/>
                <path id="Path_21236" data-name="Path 21236" d="M130.653,33.731c.008.12-.9.608-1.013.688-.648.469-.659,1.592.37,1.422.92-.152.716-1.462.643-2.11" transform="translate(-4.216 -1.101)" fill="#f6df38"/>
                <path id="Path_21237" data-name="Path 21237" d="M130.4,34.6a9.474,9.474,0,0,0,1.406-1.036.725.725,0,0,0-.7-1.082c-.94.109-.787,1.459-.709,2.119" transform="translate(-4.253 -1.06)" fill="#f6df38"/>
                <path id="Path_21238" data-name="Path 21238" d="M112.2,28.666c.015.012.189-.917.2-1.014.059-.442.172-.984-.194-1.324a.94.94,0,0,0-1.359.153c-.5.814.831,1.769,1.351,2.185" transform="translate(-3.613 -0.852)" fill="#f6df38"/>
                <path id="Path_21239" data-name="Path 21239" d="M111.792,27.631a4.352,4.352,0,0,0-.161,2.088c.2.838,1.113.67,1.441.019.223-.441.055-.755-.246-1.114-.094-.112-1.072-.874-1.035-.993" transform="translate(-3.64 -0.902)" fill="#f6df38"/>
                <path id="Path_21240" data-name="Path 21240" d="M112.4,28.031c-.088.1-1.2-.234-1.351-.258-.888-.141-1.79.742-.837,1.425.852.61,1.731-.593,2.188-1.167" transform="translate(-3.583 -0.906)" fill="#f6df38"/>
                <path id="Path_21241" data-name="Path 21241" d="M111.5,28.5a10.692,10.692,0,0,0,1.941.294.814.814,0,0,0,.307-1.414c-.834-.66-1.785.534-2.247,1.12" transform="translate(-3.638 -0.888)" fill="#f6df38"/>
                <path id="Path_21242" data-name="Path 21242" d="M101.21,28.836s.878-1.58-.224-1.691-.742,1.531-.415,1.8.639-.107.639-.107" transform="translate(-3.271 -0.886)" fill="#f6df38"/>
                <path id="Path_21243" data-name="Path 21243" d="M100.413,28.67c-.322.39-.5,1.158-.311,1.42.7.96,1.833-.886.943-1.564-.228-.173-.453-.074-.633.144" transform="translate(-3.264 -0.928)" fill="#f6df38"/>
                <path id="Path_21244" data-name="Path 21244" d="M100.75,28.376s-1.58-.878-1.691.224,1.531.742,1.8.415-.107-.639-.107-.639" transform="translate(-3.232 -0.915)" fill="#f6df38"/>
                <path id="Path_21245" data-name="Path 21245" d="M100.623,28.535s1.442-.6,1.624.233-.525,1.363-1.624-.233" transform="translate(-3.283 -0.925)" fill="#f6df38"/>
                <path id="Path_21246" data-name="Path 21246" d="M137.774,49.059a.369.369,0,0,0,.225-.653c-.11-.091-11.117-9.039-23.11-11.5a.369.369,0,0,0-.148.723c11.815,2.427,22.681,11.261,22.789,11.35a.371.371,0,0,0,.243.083" transform="translate(-3.735 -1.204)" fill="#bfb098"/>
                <path id="Path_21247" data-name="Path 21247" d="M135.679,53.8a.369.369,0,0,0,.239-.641,54.115,54.115,0,0,0-13.865-8.448,57.486,57.486,0,0,0-15.58-4.314,54.5,54.5,0,0,0-19.832,1.142.368.368,0,1,0,.174.716A56.537,56.537,0,0,1,135.423,53.7a.364.364,0,0,0,.256.1" transform="translate(-2.818 -1.304)" fill="#bfb098"/>
                <path id="Path_21248" data-name="Path 21248" d="M134.789,58.944a.369.369,0,0,0,.231-.649,61.6,61.6,0,0,0-14.8-8.7,62.279,62.279,0,0,0-16.211-4.486,54.657,54.657,0,0,0-20.118,1.063.369.369,0,0,0,.174.717c14.66-3.57,27.6-.13,35.868,3.385a62.019,62.019,0,0,1,14.6,8.581.369.369,0,0,0,.248.088" transform="translate(-2.728 -1.457)" fill="#bfb098"/>
                <path id="Path_21249" data-name="Path 21249" d="M85.413,16.947,68.529,50.5a13.89,13.89,0,0,0-1.1-1.495A33.32,33.32,0,0,0,56.9,40.056a54.069,54.069,0,0,0-5.248-2.73c-1.525-.68-3.094-1.242-4.676-1.77-.189-.063-.375-.129-.565-.188A54.749,54.749,0,0,0,32.2,32.684a42,42,0,0,0-4.288.046c-1.842.115-3.688.231-5.534.2a21.949,21.949,0,0,1-3.871-.387c1.813.359,6.284-5.857,7.406-7.052q2.959-3.152,5.912-6.309C33.264,17.646,44.963,5.938,47.518,4.94c0,0,24.731-6.4,37.895,12.007" transform="translate(-0.604 -0.126)" fill="#c0dbbb"/>
                <path id="Path_21250" data-name="Path 21250" d="M25.915,26.168l.722-.77c24.789-4.15,41.334,10.608,46.669,16.291L68.53,51.18a13.917,13.917,0,0,0-1.1-1.494A33.3,33.3,0,0,0,56.9,40.735a54.162,54.162,0,0,0-5.247-2.73c-1.525-.68-3.095-1.242-4.677-1.77-.188-.063-.375-.128-.565-.188A54.789,54.789,0,0,0,32.2,33.363a41.719,41.719,0,0,0-4.288.047c-1.842.114-3.687.23-5.533.2a21.85,21.85,0,0,1-3.871-.387c1.812.36,6.284-5.857,7.405-7.052" transform="translate(-0.604 -0.805)" fill="#f6d980"/>
                <path id="Path_21251" data-name="Path 21251" d="M60.94,33.323l-1.268-.274L58.7,32l.873-1.446q1.235.638,2.387,1.311Z" transform="translate(-1.915 -0.997)" fill="#dabf6b"/>
                <path id="Path_21252" data-name="Path 21252" d="M71.046,40.37l.761-1.346c.671.6,1.279,1.177,1.821,1.71l-.881,1.346-1.171-.8Z" transform="translate(-2.318 -1.274)" fill="#dabf6b"/>
                <path id="Path_21253" data-name="Path 21253" d="M65.1,35.795l-1.239-.322-.869-1.055L63.841,33q1.133.717,2.173,1.443Z" transform="translate(-2.056 -1.077)" fill="#dabf6b"/>
                <path id="Path_21254" data-name="Path 21254" d="M69.128,38.649l-1.349-.57-.67-.994.792-1.279c.759.574,1.472,1.141,2.138,1.7Z" transform="translate(-2.19 -1.169)" fill="#dabf6b"/>
                <path id="Path_21255" data-name="Path 21255" d="M76.46,38.357,74.61,36.144l-3-2.277-4.062-2.16-3.84-2.58-1.428.035-.116.924,3.6,2.125,3.923,2.117,4.219,2.94L75.758,39.8Z" transform="translate(-2.028 -0.951)" fill="#fdf6e1"/>
                <path id="Path_21256" data-name="Path 21256" d="M73.237,41.229,76.3,36.547,76.657,34l-2.557.984-2.564,4.531Z" transform="translate(-2.334 -1.11)" fill="#fff"/>
                <path id="Path_21257" data-name="Path 21257" d="M69.618,37.81,67.6,36.245,70.349,31.8,73,31.138l-.033,2.444Z" transform="translate(-2.206 -1.016)" fill="#fff"/>
                <path id="Path_21258" data-name="Path 21258" d="M65.592,34.966l-2.107-1.378,2.347-3.928,2.65-.986-.265,2.4Z" transform="translate(-2.072 -0.936)" fill="#fff"/>
                <path id="Path_21259" data-name="Path 21259" d="M61.431,32.505l-2.244-1.328,2.171-3.6L64.1,26.542l-.129,2.307Z" transform="translate(-1.931 -0.866)" fill="#fff"/>
                <path id="Path_21260" data-name="Path 21260" d="M80.35,18.208l-.026-8.149a29.763,29.763,0,0,1,6.933,6.855c.029.079.058.16.081.238Z" transform="translate(-2.621 -0.329)" fill="#dd8d57"/>
                <path id="Path_21261" data-name="Path 21261" d="M71.684,12.272l-.532-6.657a31.276,31.276,0,0,1,8.821,4.264Z" transform="translate(-2.322 -0.184)" fill="#e5a97f"/>
                <path id="Path_21262" data-name="Path 21262" d="M61.542,8.514l-.655-4.606a40.235,40.235,0,0,1,9.226,1.444Z" transform="translate(-1.987 -0.128)" fill="#dd8d57"/>
                <path id="Path_21263" data-name="Path 21263" d="M60.1,3.886l-6.99,3.885L53.147,4.2s.039-.015.11-.041A48.129,48.129,0,0,1,60.1,3.886" transform="translate(-1.733 -0.126)" fill="#e5a97f"/>
                <path id="Path_21264" data-name="Path 21264" d="M47.119,8.226l1.149-3.271a44.77,44.77,0,0,1,4.57-.756c.039.006.074.009.113.015Z" transform="translate(-1.538 -0.137)" fill="#dd8d57"/>
                <path id="Path_21265" data-name="Path 21265" d="M65.074,18.16a2.484,2.484,0,0,1,3.052-1.072,1.925,1.925,0,0,1,1.112,1.286.848.848,0,0,1,.982-.168.778.778,0,0,1,.068.04,2.8,2.8,0,0,1,3.511-.557,3.112,3.112,0,0,1,1.009,4.1c-.015.028-.032.055-.048.083a1.945,1.945,0,0,1,.476.259,2.6,2.6,0,0,1,.663,3.238,1.791,1.791,0,0,1-2.657.613l0,.006a37.931,37.931,0,0,0-9.38-5.122,1.24,1.24,0,0,1-.7-1.821,1.854,1.854,0,0,1,1.918-.88" transform="translate(-2.055 -0.552)" fill="#fff"/>
                <path id="Path_21266" data-name="Path 21266" d="M43.487,15.2a1.1,1.1,0,0,1,.261.013c0-.04.011-.08.019-.122a1.751,1.751,0,0,1,1.8-1.462,1.571,1.571,0,0,1,1.228.8,2.583,2.583,0,0,1,1.516-.262,1.768,1.768,0,0,1,.678,1.7,1.567,1.567,0,0,1-.034.158,1.071,1.071,0,0,1,.316.085A1.864,1.864,0,0,1,50.6,18.117a.851.851,0,0,1-1.1.793,9.153,9.153,0,0,1-.931-.349,12.093,12.093,0,0,0-2.844-.948,21.871,21.871,0,0,0-2.815-.388c-.669-.011-1.107-.41-.977-.971A1.754,1.754,0,0,1,43.487,15.2" transform="translate(-1.368 -0.445)" fill="#fff"/>
                <g id="Group_18810" data-name="Group 18810" transform="translate(56.879 25.731)" style="mix-blend-mode: multiply;isolation: isolate">
                  <g id="Group_18809" data-name="Group 18809">
                    <g id="Group_18808" data-name="Group 18808" clip-path="url(#clip-path-13)">
                      <path id="Path_21267" data-name="Path 21267" d="M58.892,29.281a.1.1,0,0,0,.028,0,7,7,0,0,1,3.993-.161,5.009,5.009,0,0,0,4.995-2.381.092.092,0,1,0-.163-.086,4.811,4.811,0,0,1-4.793,2.287,7.194,7.194,0,0,0-4.092.166.092.092,0,0,0,.032.179" transform="translate(-58.797 -26.599)" fill="#bfb098"/>
                    </g>
                  </g>
                </g>
                <g id="Group_18813" data-name="Group 18813" transform="translate(65.255 20.964)" opacity="0.7">
                  <g id="Group_18812" data-name="Group 18812">
                    <g id="Group_18811" data-name="Group 18811" clip-path="url(#clip-path-14)">
                      <path id="Path_21268" data-name="Path 21268" d="M68.2,22.913a3.134,3.134,0,0,1,4.165-.739,2.712,2.712,0,0,1,.245,3.978,3.134,3.134,0,0,1-4.165.739,2.713,2.713,0,0,1-.245-3.978" transform="translate(-67.456 -21.671)" fill="#e6a830"/>
                    </g>
                  </g>
                </g>
                <g id="Group_18816" data-name="Group 18816" transform="translate(47.148 11.811)" opacity="0.7">
                  <g id="Group_18815" data-name="Group 18815">
                    <g id="Group_18814" data-name="Group 18814" clip-path="url(#clip-path-15)">
                      <path id="Path_21269" data-name="Path 21269" d="M49.536,13.38a3.646,3.646,0,0,1,4.426-.7,2.339,2.339,0,0,1,.249,3.72,3.647,3.647,0,0,1-4.426.705,2.341,2.341,0,0,1-.249-3.72" transform="translate(-48.739 -12.21)" fill="#cb2729"/>
                    </g>
                  </g>
                </g>
                <g id="Group_18819" data-name="Group 18819" transform="translate(42.919 16.608)" style="mix-blend-mode: multiply;isolation: isolate">
                  <g id="Group_18818" data-name="Group 18818">
                    <g id="Group_18817" data-name="Group 18817" clip-path="url(#clip-path-16)">
                      <path id="Path_21270" data-name="Path 21270" d="M44.491,25.509c.311-.008,2.667-.107,3.608-1.4A2.276,2.276,0,0,0,48.33,22c-1-3.221,1.261-4.606,1.358-4.663a.092.092,0,1,0-.094-.159,4.083,4.083,0,0,0-1.44,4.876A2.1,2.1,0,0,1,47.95,24c-.934,1.282-3.467,1.324-3.492,1.324h0a.092.092,0,0,0,0,.184h.031" transform="translate(-44.367 -17.169)" fill="#bfb098"/>
                    </g>
                  </g>
                </g>
                <g id="Group_18822" data-name="Group 18822" transform="translate(42.867 16.068)" opacity="0.7">
                  <g id="Group_18821" data-name="Group 18821">
                    <g id="Group_18820" data-name="Group 18820" clip-path="url(#clip-path-17)">
                      <path id="Path_21271" data-name="Path 21271" d="M44.315,18.2a1.563,1.563,0,0,1,1.5-1.587A1.519,1.519,0,0,1,47.149,18.3a1.565,1.565,0,0,1-1.5,1.587A1.518,1.518,0,0,1,44.315,18.2" transform="translate(-44.313 -16.61)" fill="#638dc8"/>
                    </g>
                  </g>
                </g>
                <g id="Group_18825" data-name="Group 18825" transform="translate(43.162 19.104)" style="mix-blend-mode: multiply;isolation: isolate">
                  <g id="Group_18824" data-name="Group 18824">
                    <g id="Group_18823" data-name="Group 18823" clip-path="url(#clip-path-18)">
                      <path id="Path_21272" data-name="Path 21272" d="M44.713,22.546a.093.093,0,0,0,.09-.095,8.479,8.479,0,0,1,.627-2.575.093.093,0,0,0-.05-.121.091.091,0,0,0-.12.05,8.491,8.491,0,0,0-.641,2.651.093.093,0,0,0,.095.09" transform="translate(-44.618 -19.748)" fill="#bfb098"/>
                    </g>
                  </g>
                </g>
                <path id="Path_21273" data-name="Path 21273" d="M58.549,20.28l.889,1.207-1.1.273-.893-1.33Z" transform="translate(-1.875 -0.662)" fill="#f7f2a6"/>
                <path id="Path_21274" data-name="Path 21274" d="M59.767,11.705l-1.743-.941L56.7,11.78l-.989-.222.018.736,1.362.459L57.8,11.63l1.117.464Z" transform="translate(-1.818 -0.352)" fill="#cf4c4d"/>
                <g id="Group_18828" data-name="Group 18828" transform="translate(33.567 18.056)" opacity="0.7">
                  <g id="Group_18827" data-name="Group 18827">
                    <g id="Group_18826" data-name="Group 18826" clip-path="url(#clip-path-19)">
                      <path id="Path_21275" data-name="Path 21275" d="M37.26,19.25l-1.81,1.4-.752-.6,1.319-1.383Z" transform="translate(-34.699 -18.666)" fill="#80b95e"/>
                    </g>
                  </g>
                </g>
                <g id="Group_18831" data-name="Group 18831" transform="translate(75.153 20.14)" opacity="0.7">
                  <g id="Group_18830" data-name="Group 18830">
                    <g id="Group_18829" data-name="Group 18829" clip-path="url(#clip-path-20)">
                      <path id="Path_21276" data-name="Path 21276" d="M78.27,20.82l-.581,1.366,1.866.938L80.141,22Z" transform="translate(-77.688 -20.82)" fill="#638dc8"/>
                    </g>
                  </g>
                </g>
                <path id="Path_21277" data-name="Path 21277" d="M55.867,23.039l2.278-.761,1.266,1.205-2.977,1.132L55.169,23.41Z" transform="translate(-1.8 -0.727)" fill="#df9362"/>
                <g id="Group_18834" data-name="Group 18834" transform="translate(71.713 24.088)" opacity="0.7">
                  <g id="Group_18833" data-name="Group 18833">
                    <g id="Group_18832" data-name="Group 18832" clip-path="url(#clip-path-21)">
                      <path id="Path_21278" data-name="Path 21278" d="M77.512,24.9l-1.836.29-.2,1.971-1.345.278.3,2.082.985.1-.149-1.1,1.213-.643L76.43,25.91l1.106-.026Z" transform="translate(-74.132 -24.901)" fill="#80b95e"/>
                    </g>
                  </g>
                </g>
                <path id="Path_21279" data-name="Path 21279" d="M39.862,15.016l.27.976L38.4,15.665Z" transform="translate(-1.253 -0.49)" fill="#f7f2a6"/>
                <g id="Group_18837" data-name="Group 18837" transform="translate(63.523 11.322)" opacity="0.7">
                  <g id="Group_18836" data-name="Group 18836">
                    <g id="Group_18835" data-name="Group 18835" clip-path="url(#clip-path-22)">
                      <path id="Path_21280" data-name="Path 21280" d="M66.481,11.7l1.5,1.07-2.316.793Z" transform="translate(-65.666 -11.704)" fill="#80b95e"/>
                    </g>
                  </g>
                </g>
                <path id="Path_21281" data-name="Path 21281" d="M55.8,26.953s-1.927-1.3-1.509-1.656,1.736-1.144,1.073-1.381-1.807.472-2.367,1.053.784,2.006,1.183,2.263,2.443.688,1.62-.279" transform="translate(-1.725 -0.779)" fill="#f2f2f2"/>
                <path id="Path_21282" data-name="Path 21282" d="M58.485,24.5s1.986-5.222,1.19-5.361-2.349,1.112-1.886,4.956c0,0-.133-5.488-.5-5.374s-1.842.256-.615,5.137A1.634,1.634,0,0,0,55.3,25.945c.414,1.838,2.9,2.147,3.662.809a1.744,1.744,0,0,0-.477-2.259" transform="translate(-1.802 -0.611)" fill="#fff"/>
                <path id="Path_21283" data-name="Path 21283" d="M45.349,30.219c-.442,1.334,1.673,3.235,4.724,4.244s5.881.746,6.323-.588-1.674-3.235-4.724-4.244-5.881-.746-6.323.588" transform="translate(-1.478 -0.947)" fill="#d5bb69"/>
                <path id="Path_21284" data-name="Path 21284" d="M49.95,28.762l1.277.393a4.457,4.457,0,0,0,2.521-.537c1-.677,1.478-2.174,2.018-1.685,1.081.976.957.241.957.241s.774,3.642-1.931,5.292-4.864-.271-6.044-1.033-.83-1.564-.2-1.685.444.887.444.887,1.6.754,2.073.583.08-1.058.08-1.058-1.756-.538-2.032-1.059-.407-1.574.173-1.587.664,1.25.664,1.25" transform="translate(-1.565 -0.876)" fill="#fff"/>
                <g id="Group_18840" data-name="Group 18840" transform="translate(49.983 20.388)" style="mix-blend-mode: multiply;isolation: isolate">
                  <g id="Group_18839" data-name="Group 18839">
                    <g id="Group_18838" data-name="Group 18838" clip-path="url(#clip-path-23)">
                      <path id="Path_21285" data-name="Path 21285" d="M55.635,25.061l-.415.327-1.852-2.331-1.7-.434s1.067-1.715,2.234-1.532l.038,1.584Z" transform="translate(-51.669 -21.076)" fill="#f6e434"/>
                    </g>
                  </g>
                </g>
                <path id="Path_21286" data-name="Path 21286" d="M55.689,27.054s-2.16-.855-1.828-1.3,1.452-1.489.754-1.579-1.665.847-2.088,1.535,1.2,2,1.645,2.168,2.528-.061,1.518-.829" transform="translate(-1.712 -0.789)" fill="#fff"/>
                <path id="Path_21287" data-name="Path 21287" d="M55.447,25.4a.633.633,0,1,0,.618-.648.635.635,0,0,0-.618.648" transform="translate(-1.809 -0.808)" fill="#fff"/>
                <path id="Path_21288" data-name="Path 21288" d="M57.311,22.242l-.04.006.755-.1a.853.853,0,0,1-.238,0l.7.109a.4.4,0,0,1-.124-.042l.6.333a.311.311,0,0,1-.082-.069l.431.53a.377.377,0,0,1-.061-.113q.113.334.228.667a.726.726,0,0,1-.034-.2l.029.76v-.009a1.914,1.914,0,0,0-.142-1.093,1.677,1.677,0,0,0-1.491-1.251,1.914,1.914,0,0,0-1.1.049l-.772.3A4.825,4.825,0,0,0,54.527,23.3l-.548.792a4.163,4.163,0,0,0-.526,1.637c.01.269.011.54.032.809a.468.468,0,0,0,.006.053.632.632,0,0,0,.019.093c.036.117.089.258.12.351s.076.236.121.35c0,.013.011.024.016.037a.366.366,0,0,0,.019.033l.01.014.006.008,0,0,.431.53a.276.276,0,0,0,.052.048.2.2,0,0,0,.03.019c.047.029.55.31.6.335l.007,0,.019.009a.465.465,0,0,0,.074.023l.019,0c.116.02.581.092.7.109l.013,0,.043,0a.809.809,0,0,0,.108,0l.055-.006c.258-.032.52-.069.777-.106l.036-.006a3.072,3.072,0,0,0,1.146-.553A4.56,4.56,0,0,0,59.7,25.762a3.1,3.1,0,0,0,.346-1.225l-.029-.761a1.98,1.98,0,0,0-.66-1.2l-.6-.333a2.518,2.518,0,0,0-1.45-.006" transform="translate(-1.744 -0.709)" fill="#6f6459"/>
                <g id="Group_18843" data-name="Group 18843" transform="translate(54.466 24.332)" style="mix-blend-mode: multiply;isolation: isolate">
                  <g id="Group_18842" data-name="Group 18842">
                    <g id="Group_18841" data-name="Group 18841" clip-path="url(#clip-path-24)">
                      <path id="Path_21289" data-name="Path 21289" d="M56.3,26a.822.822,0,1,0,.8-.842.822.822,0,0,0-.8.842" transform="translate(-56.303 -25.153)" fill="#eac1c2"/>
                    </g>
                  </g>
                </g>
                <g id="Group_18846" data-name="Group 18846" transform="translate(17.135 29.155)" style="mix-blend-mode: multiply;isolation: isolate">
                  <g id="Group_18845" data-name="Group 18845">
                    <g id="Group_18844" data-name="Group 18844" clip-path="url(#clip-path-25)">
                      <path id="Path_21290" data-name="Path 21290" d="M18.161,30.143c3.006,1.162,9.923,1.839,10.418,1.289.028-.032-.959,1.753-.959,1.753-4.037,2.078-8.508-.122-9.479-1.659s.02-1.382.02-1.382" transform="translate(-17.714 -30.139)" fill="#e0d6c8"/>
                    </g>
                  </g>
                </g>
                <path id="Path_21291" data-name="Path 21291" d="M29.029,31.8c.692.554,1.018,1.307.291,1.764a3.761,3.761,0,0,1-1.813.361c-.662,0-2.063.067-2.261-.812a1.825,1.825,0,0,1,.824-1.58,2.475,2.475,0,0,1,2.958.266" transform="translate(-0.823 -1.017)" fill="#fff"/>
                <path id="Path_21292" data-name="Path 21292" d="M28.719,31.536a3.026,3.026,0,0,1,.411.277c.693.554,1.018,1.306.292,1.764a2.382,2.382,0,0,1-.841.284,2.277,2.277,0,0,1,.137-2.326" transform="translate(-0.925 -1.029)" fill="#e0d6c8"/>
                <path id="Path_21293" data-name="Path 21293" d="M39.355,32.56s-1.512.037-1.944-2.574-.926-9.243-.926-9.243-.211-1.1-1.2.546-.787,7.107.058,8.49a17.8,17.8,0,0,0-2.852-.374c-.737.055-5.258-5.226-6.621-8.146,0,0-.609-.8-.973.984S26.23,28.706,30.581,30c0,0-3.21.583-1.438,3.6l9.009,1.085s2.95-.145,1.2-2.133" transform="translate(-0.811 -0.665)" fill="#fff"/>
                <path id="Path_21294" data-name="Path 21294" d="M33.313,31.231a.545.545,0,1,0,.531-.557.544.544,0,0,0-.531.557" transform="translate(-1.087 -1.001)" fill="#6f6459"/>
                <path id="Path_21295" data-name="Path 21295" d="M39.518,32.267c.806.645,1.185,1.521.34,2.054a4.392,4.392,0,0,1-2.111.421c-.77,0-2.4.077-2.631-.945a2.124,2.124,0,0,1,.959-1.839,2.882,2.882,0,0,1,3.444.31" transform="translate(-1.145 -1.029)" fill="#e0d6c8"/>
                <path id="Path_21296" data-name="Path 21296" d="M31.36,30.833a1.925,1.925,0,0,0-1.01-.074c-.477.124.308.819.308.819s1.188-.579.7-.745" transform="translate(-0.985 -1.003)" fill="#efd1d2"/>
                <g id="Group_18849" data-name="Group 18849" transform="translate(32.754 29.795)" style="mix-blend-mode: multiply;isolation: isolate">
                  <g id="Group_18848" data-name="Group 18848">
                    <g id="Group_18847" data-name="Group 18847" clip-path="url(#clip-path-26)">
                      <path id="Path_21297" data-name="Path 21297" d="M33.859,32.237A1.4,1.4,0,1,0,35.227,30.8a1.4,1.4,0,0,0-1.368,1.437" transform="translate(-33.859 -30.8)" fill="#eac1c2"/>
                    </g>
                  </g>
                </g>
                <path id="Path_21298" data-name="Path 21298" d="M32.327,29.426c-1.044-.37-5.313-2.06-5.336-4.966a1.782,1.782,0,0,1,.184-.98c1.7,2.544,4.252,5.447,5.152,5.946" transform="translate(-0.881 -0.766)" fill="#e0d6c8"/>
                <path id="Path_21299" data-name="Path 21299" d="M40.058,32.286c.806.645,1.185,1.521.34,2.054a4.392,4.392,0,0,1-2.111.421c-.77,0-2.4.077-2.631-.945a2.124,2.124,0,0,1,.959-1.839,2.882,2.882,0,0,1,3.444.31" transform="translate(-1.163 -1.029)" fill="#fff"/>
              </g>
            </g>
          </g>
        </g>
        <g id="Group_19184" data-name="Group 19184" transform="translate(1804.593 9386)">
          <path id="Path_21150" data-name="Path 21150" d="M94.344.132s-3.359,2.152-4.2,5.568.913,8.633.913,8.633,3.59-3.98,4.434-7.4a10.275,10.275,0,0,0-1.144-6.8" transform="translate(-1789.775 -8794.36)" fill="#668242" fill-rule="evenodd"/>
          <path id="Path_21151" data-name="Path 21151" d="M94.17,9.921a11.257,11.257,0,0,0,1.3,2.5s3.113-2.493,3.594-5.98A10.086,10.086,0,0,0,97.351,0l0,.327a19.437,19.437,0,0,1-.94,6.045A13.24,13.24,0,0,1,94.17,9.921" transform="translate(-1792.788 -8794.267)" fill="#556d3a" fill-rule="evenodd"/>
          <path id="Path_21152" data-name="Path 21152" d="M57.144,104.886a13.456,13.456,0,0,1-7.85,1.77,11.92,11.92,0,0,1-6.727-3.828,13.453,13.453,0,0,1,7.849-1.77,11.919,11.919,0,0,1,6.727,3.828" transform="translate(-1756.278 -8865.704)" fill="#556d3a" fill-rule="evenodd"/>
          <path id="Path_21153" data-name="Path 21153" d="M104.564,30.113s.976,3.792-.79,6.61-5.6,3.593-5.6,3.593-.975-3.792.79-6.61,5.6-3.593,5.6-3.593" transform="translate(-1795.428 -8815.572)" fill="#556d3a" fill-rule="evenodd"/>
          <rect id="Rectangle_11860" data-name="Rectangle 11860" width="33.739" height="1.532" transform="translate(-1700.272 -8749.181) rotate(-88.611)" fill="#2c1815"/>
          <rect id="Rectangle_11861" data-name="Rectangle 11861" width="33.739" height="0.864" transform="matrix(0.024, -1, 1, 0.024, -1700.274, -8749.181)" fill="#432e26"/>
          <path id="Path_21154" data-name="Path 21154" d="M105.77,79.938s.741,6.817-3.025,11.257-10.612,4.822-10.612,4.822-.741-6.817,3.025-11.257,10.612-4.823,10.612-4.823" transform="translate(-1791.305 -8850.824)" fill="#789a4a" fill-rule="evenodd"/>
          <path id="Path_21155" data-name="Path 21155" d="M105.911,79.938s.74,6.817-3.025,11.257-10.612,4.823-10.612,4.823v-.01c4.9-3.388,10.564-11.776,13.638-16.071" transform="translate(-1791.446 -8850.824)" fill="#6e8e46" fill-rule="evenodd"/>
          <path id="Path_21156" data-name="Path 21156" d="M46.573,59.706S45.5,66.479,49.049,71.1s10.366,5.331,10.366,5.331,1.07-6.773-2.477-11.39-10.366-5.331-10.366-5.331" transform="translate(-1759.005 -8836.51)" fill="#789a4a" fill-rule="evenodd"/>
          <path id="Path_21157" data-name="Path 21157" d="M46.589,59.706a15.874,15.874,0,0,0-.145,1.884c5,.084,9.894,2.412,13.139,12.412,0-2.391-.424-6.094-2.628-8.965-3.547-4.618-10.366-5.331-10.366-5.331" transform="translate(-1759.021 -8836.51)" fill="#87af4f" fill-rule="evenodd"/>
          <path id="Path_21158" data-name="Path 21158" d="M104.753,40.031s.656,6.044-2.683,9.981-9.409,4.276-9.409,4.276S92,48.244,95.344,44.307s9.409-4.276,9.409-4.276" transform="translate(-1791.684 -8822.589)" fill="#789a4a" fill-rule="evenodd"/>
          <path id="Path_21159" data-name="Path 21159" d="M109.613,40.032s.657,6.044-2.682,9.981A13.392,13.392,0,0,1,99.48,54c4.851-3.584,7.487-8.582,9.955-13.957.115-.011.178-.014.178-.014" transform="translate(-1796.545 -8822.59)" fill="#6e8e46" fill-rule="evenodd"/>
          <path id="Path_21160" data-name="Path 21160" d="M62.932,30.726s-1.054,4.686,1.217,8.075S71.155,43,71.155,43s1.054-4.687-1.217-8.075-7.006-4.2-7.006-4.2" transform="translate(-1770.514 -8816.006)" fill="#789a4a" fill-rule="evenodd"/>
          <path id="Path_21161" data-name="Path 21161" d="M82.647,8.128s-2.181,3.314-1.566,6.761a10.222,10.222,0,0,0,3.794,5.72s2.181-3.315,1.566-6.761a10.22,10.22,0,0,0-3.794-5.72" transform="translate(-1783.45 -8800.018)" fill="#789a4a" fill-rule="evenodd"/>
          <path id="Path_21162" data-name="Path 21162" d="M57.975,146.41c.139-.416.293-1.076.94-.818.2-.019.284-.58.746-.48.37-.249,1.123-.563,1.5-.808.163-.135.092-.37.472-.357a11.183,11.183,0,0,1,4.019-.35c.57-.16.559.4,1.025.6.979.42.815.035,1.275.178.662.207-.082.252,1.018.262,1.244.034,7.795,4.886,4.734,5.557-5.689.492-12.095.856-17.56-.722-1.128-.07.612-2.022.921-2.219.366-.028.463-.874.907-.841" transform="translate(-1765.619 -8895.835)" fill="#503a34" fill-rule="evenodd"/>
          <path id="Path_21163" data-name="Path 21163" d="M64.954,151.082c.664.179.409-.374.733-.552,1.12.047,3.012,1.444,3.561-.173.348-.242.414-.372.247-.841-.218-.612-.7.2-.64-.84.023-.392-1.118-1.2,1.269-.449,1.54.356,1.983-.982,3,.4.288.13.109.223.42.561.29.317-.4.346.491.4.66.335.1.607,1,.86,7.249,4.827-14.69,3.34-16.482,2.214,1.224-.464,3.032.514,3.968-.731.183-.357.264-.126.639-.377.839-.476.575-.787,1.8-.47" transform="translate(-1767.586 -8898.921)" fill="#321711" fill-rule="evenodd"/>
          <path id="Path_21164" data-name="Path 21164" d="M64.926,151.833c.147-.789,1.235-.372.516.254-.276.241-.517.206-.516-.254" transform="translate(-1772.097 -8901.386)" fill="#6c524c" fill-rule="evenodd"/>
          <path id="Path_21165" data-name="Path 21165" d="M80.113,152.912c.147-.789,1.235-.372.516.254-.276.241-.518.206-.516-.254" transform="translate(-1782.842 -8902.149)" fill="#6c524c" fill-rule="evenodd"/>
          <path id="Path_21166" data-name="Path 21166" d="M81.368,146.66c-.168.1-.8.338-.956.251-.285-.16.138-.9.422-1.022.236-.1.991.01.763.509a.638.638,0,0,1-.229.263" transform="translate(-1782.987 -8897.462)" fill="#6c524c" fill-rule="evenodd"/>
          <path id="Path_21169" data-name="Path 21169" d="M64.621,164.141a.718.718,0,0,1,.722-.148.909.909,0,0,1,.688.82c.037.368-.219.342-.463.39a1.959,1.959,0,0,1-1.028,0c-.1-.025-.356-.121-.371-.244-.025-.206.313-.676.452-.815" transform="translate(-1771.561 -8910.27)" fill="#321711" fill-rule="evenodd"/>
        </g>
        <g id="Group_19148" data-name="Group 19148" transform="translate(283.38 557.687)">
          <g id="Group_18881" data-name="Group 18881" clip-path="url(#clip-path-27)">
            <g id="Group_18873" data-name="Group 18873">
              <g id="Group_18872" data-name="Group 18872" clip-path="url(#clip-path-28)">
                <rect id="Rectangle_11892" data-name="Rectangle 11892" width="41.09" height="40.591" transform="translate(-3.003 1.51) rotate(-12.159)" fill="url(#linear-gradient)"/>
                <path id="Path_21311" data-name="Path 21311" d="M40.415,7.894A140.289,140.289,0,0,0,.182,20.031L0,19.5A126.1,126.1,0,0,1,40.275,7.353c.047.181.093.361.14.541" fill="#fff"/>
                <path id="Path_21312" data-name="Path 21312" d="M42.939,17.626A123.6,123.6,0,0,1,3.462,29.535l-.183-.528A138.4,138.4,0,0,0,42.8,17.085q.069.272.14.541" fill="#fff"/>
              </g>
            </g>
            <g id="Group_18880" data-name="Group 18880">
              <g id="Group_18879" data-name="Group 18879" clip-path="url(#clip-path-28)">
                <g id="Group_18878" data-name="Group 18878" opacity="0.5" style="mix-blend-mode: multiply;isolation: isolate">
                  <g id="Group_18877" data-name="Group 18877">
                    <g id="Group_18876" data-name="Group 18876" clip-path="url(#clip-path-30)">
                      <g id="Group_18875" data-name="Group 18875">
                        <g id="Group_18874" data-name="Group 18874" clip-path="url(#clip-path-31)">
                          <rect id="Rectangle_11893" data-name="Rectangle 11893" width="41.96" height="23.591" transform="translate(-1.835 13.268) rotate(-16.786)" fill="url(#linear-gradient-2)"/>
                        </g>
                      </g>
                    </g>
                  </g>
                </g>
                <path id="Path_21315" data-name="Path 21315" d="M39.134,10.218l-.447.1a.368.368,0,0,1-.45-.209c-.043-.162.089-.326.3-.367l.449-.09a.373.373,0,0,1,.449.208c.041.155-.093.317-.3.362m-2.235.493q-.894.2-1.788.411a.375.375,0,0,1-.46-.227.338.338,0,0,1,.288-.4q.9-.2,1.8-.388a.376.376,0,0,1,.455.219.334.334,0,0,1-.292.383m-3.577.838q-.894.216-1.789.441a.379.379,0,0,1-.467-.239.35.35,0,0,1,.279-.424q.9-.216,1.8-.424a.382.382,0,0,1,.463.235.347.347,0,0,1-.283.411m-3.577.9q-.894.231-1.787.47a.382.382,0,0,1-.472-.246.36.36,0,0,1,.272-.443q.9-.234,1.793-.459a.384.384,0,0,1,.47.244.358.358,0,0,1-.276.434m-3.572.955q-.891.246-1.782.5a.383.383,0,0,1-.476-.248.371.371,0,0,1,.267-.458q.893-.25,1.787-.492a.384.384,0,0,1,.474.248.369.369,0,0,1-.27.451m-3.562,1.011q-.89.261-1.776.527a.372.372,0,1,1-.215-.711q.889-.267,1.779-.525a.381.381,0,0,1,.477.247.376.376,0,0,1-.265.462m-3.548,1.067q-.885.273-1.768.554a.374.374,0,0,1-.476-.235.384.384,0,0,1,.26-.47q.882-.284,1.768-.558a.375.375,0,0,1,.477.241.381.381,0,0,1-.261.468M15.533,16.6q-.88.286-1.757.58a.365.365,0,0,1-.473-.221.385.385,0,0,1,.257-.467q.878-.3,1.756-.59a.368.368,0,0,1,.475.229.383.383,0,0,1-.258.469m-3.508,1.173q-.873.3-1.743.6a.353.353,0,0,1-.468-.2.385.385,0,0,1,.257-.46q.868-.313,1.741-.621a.358.358,0,0,1,.471.212.384.384,0,0,1-.258.464M8.546,19q-.867.312-1.729.631a.342.342,0,0,1-.46-.176.38.38,0,0,1,.257-.446q.859-.33,1.724-.651a.344.344,0,0,1,.464.189A.378.378,0,0,1,8.546,19M5.1,20.271q-.858.324-1.711.655a.329.329,0,0,1-.451-.145.375.375,0,0,1,.259-.427q.849-.344,1.705-.681a.332.332,0,0,1,.456.161.373.373,0,0,1-.258.437" fill="#fff"/>
                <path id="Path_21316" data-name="Path 21316" d="M39.5,11.585l-.441.113a.351.351,0,0,1-.445-.2.337.337,0,0,1,.292-.38l.443-.107a.356.356,0,0,1,.444.194.343.343,0,0,1-.293.376m-2.2.571q-.885.231-1.768.467a.36.36,0,0,1-.455-.217A.347.347,0,0,1,35.352,12q.888-.225,1.776-.444a.359.359,0,0,1,.45.208.346.346,0,0,1-.286.394m-3.538.942q-.885.239-1.771.483a.37.37,0,0,1-.464-.231.359.359,0,0,1,.276-.432q.891-.236,1.779-.466a.371.371,0,0,1,.461.225.36.36,0,0,1-.281.421m-3.542.974c-.591.165-1.184.332-1.774.5a.378.378,0,0,1-.471-.241.367.367,0,0,1,.272-.449c.591-.164,1.185-.327,1.778-.487a.374.374,0,0,1,.467.237.366.366,0,0,1-.272.44m-3.548,1.007q-.886.255-1.772.514a.38.38,0,0,1-.475-.245.375.375,0,0,1,.265-.46c.592-.172,1.186-.341,1.777-.508a.379.379,0,0,1,.473.244.373.373,0,0,1-.268.455m-3.545,1.036q-.886.263-1.771.53a.371.371,0,1,1-.214-.711q.888-.267,1.773-.528a.37.37,0,1,1,.212.709M19.58,17.181q-.884.27-1.766.543a.374.374,0,0,1-.475-.238.379.379,0,0,1,.259-.467q.882-.276,1.767-.547a.371.371,0,1,1,.215.709m-3.529,1.093q-.879.277-1.758.557a.371.371,0,0,1-.474-.226.378.378,0,0,1,.258-.462q.878-.285,1.758-.567a.372.372,0,0,1,.475.233.377.377,0,0,1-.259.465m-3.513,1.12q-.875.284-1.75.569a.362.362,0,0,1-.469-.209.374.374,0,0,1,.259-.451c.582-.2,1.163-.391,1.747-.585a.364.364,0,0,1,.472.219.374.374,0,0,1-.259.457M9.044,20.539q-.87.288-1.738.581a.354.354,0,0,1-.463-.187A.367.367,0,0,1,7.1,20.5c.578-.2,1.155-.4,1.735-.6a.353.353,0,0,1,.465.2.366.366,0,0,1-.258.444m-3.47,1.168q-.865.3-1.725.593a.344.344,0,0,1-.454-.159.356.356,0,0,1,.261-.413q.857-.312,1.719-.619a.344.344,0,0,1,.459.174.357.357,0,0,1-.26.424" fill="#fff"/>
                <path id="Path_21317" data-name="Path 21317" d="M40.372,14.889l-.426.153a.313.313,0,0,1-.433-.164.375.375,0,0,1,.28-.413l.428-.146a.315.315,0,0,1,.431.16.382.382,0,0,1-.28.41m-2.134.76q-.855.3-1.715.6a.329.329,0,0,1-.445-.19.379.379,0,0,1,.273-.435q.862-.286,1.724-.576a.325.325,0,0,1,.439.177.382.382,0,0,1-.276.425M34.8,16.841q-.863.294-1.729.584a.344.344,0,0,1-.455-.212.381.381,0,0,1,.268-.45l1.736-.568a.34.34,0,0,1,.45.2.384.384,0,0,1-.27.444M31.336,18q-.869.286-1.74.57a.358.358,0,0,1-.464-.229.382.382,0,0,1,.264-.461l1.746-.557a.353.353,0,0,1,.46.22.386.386,0,0,1-.266.457m-3.485,1.131q-.875.278-1.75.552a.369.369,0,0,1-.47-.239.381.381,0,0,1,.261-.466q.877-.271,1.754-.546a.363.363,0,0,1,.467.234.385.385,0,0,1-.262.465m-3.5,1.1q-.878.27-1.756.536a.372.372,0,1,1-.215-.711q.88-.266,1.76-.535a.373.373,0,0,1,.471.243.38.38,0,0,1-.26.467m-3.516,1.063q-.88.261-1.761.518a.383.383,0,0,1-.476-.245.369.369,0,0,1,.259-.459l1.763-.523a.371.371,0,1,1,.215.709m-3.525,1.028q-.882.252-1.764.5a.386.386,0,0,1-.475-.24.36.36,0,0,1,.26-.448q.882-.253,1.763-.51a.383.383,0,0,1,.476.242.367.367,0,0,1-.26.456m-3.529.99q-.882.243-1.764.481a.385.385,0,0,1-.473-.229.349.349,0,0,1,.262-.431q.88-.246,1.762-.5a.381.381,0,0,1,.474.235.353.353,0,0,1-.261.44m-3.529.953q-.88.233-1.763.461a.383.383,0,0,1-.468-.213.334.334,0,0,1,.265-.408l1.759-.483a.38.38,0,0,1,.471.222.34.34,0,0,1-.264.421m-3.524.913q-.88.224-1.759.441a.381.381,0,0,1-.462-.192.319.319,0,0,1,.269-.38q.876-.232,1.754-.467a.376.376,0,0,1,.465.2.323.323,0,0,1-.267.4" fill="#fff"/>
                <path id="Path_21318" data-name="Path 21318" d="M40.734,16.256l-.42.17a.3.3,0,0,1-.427-.151.391.391,0,0,1,.274-.426l.422-.162c.194-.075.385-.01.426.146a.4.4,0,0,1-.275.423m-2.1.838q-.844.332-1.694.655a.317.317,0,0,1-.441-.18.391.391,0,0,1,.269-.445q.854-.313,1.7-.632a.311.311,0,0,1,.434.166.4.4,0,0,1-.271.436m-3.4,1.3q-.854.317-1.712.626a.334.334,0,0,1-.452-.2.391.391,0,0,1,.265-.458q.861-.3,1.719-.61a.328.328,0,0,1,.446.193.4.4,0,0,1-.266.453M31.8,19.629q-.863.3-1.727.6A.351.351,0,0,1,29.614,20a.389.389,0,0,1,.261-.467q.869-.29,1.733-.586a.344.344,0,0,1,.456.214.394.394,0,0,1-.262.464M28.341,20.81q-.869.288-1.74.569a.365.365,0,0,1-.468-.237.385.385,0,0,1,.26-.469q.873-.277,1.744-.562a.358.358,0,0,1,.464.23.389.389,0,0,1-.26.469m-3.486,1.123q-.873.273-1.751.538a.371.371,0,1,1-.214-.71q.878-.266,1.754-.538a.37.37,0,0,1,.47.241.382.382,0,0,1-.259.469M21.349,23q-.879.258-1.76.508a.387.387,0,0,1-.476-.248.367.367,0,0,1,.259-.457q.882-.254,1.761-.512a.379.379,0,0,1,.474.246.373.373,0,0,1-.258.463m-3.524,1q-.882.243-1.766.477a.393.393,0,0,1-.476-.246.353.353,0,0,1,.26-.442q.883-.24,1.766-.487a.388.388,0,0,1,.476.247.36.36,0,0,1-.26.451m-3.535.937q-.885.227-1.771.445a.4.4,0,0,1-.474-.238.338.338,0,0,1,.263-.422q.884-.226,1.768-.46a.39.39,0,0,1,.476.242.345.345,0,0,1-.262.433m-3.543.874q-.886.21-1.774.412a.4.4,0,0,1-.47-.225.322.322,0,0,1,.267-.4q.885-.213,1.769-.433a.393.393,0,0,1,.473.231.33.33,0,0,1-.265.412M7.2,26.613q-.886.193-1.773.379a.4.4,0,0,1-.465-.207c-.053-.156.069-.319.272-.365q.883-.2,1.768-.405a.391.391,0,0,1,.468.215.311.311,0,0,1-.27.383" fill="#fff"/>
              </g>
            </g>
          </g>
        </g>
        <g id="Group_19186" data-name="Group 19186" transform="matrix(0.966, -0.259, 0.259, 0.966, 295.794, 611.697)">
          <g id="Group_18898" data-name="Group 18898" clip-path="url(#clip-path-32)">
            <path id="Path_21362" data-name="Path 21362" d="M117.2,27.267c-.033.191-.074.384-.122.573a7.453,7.453,0,0,1-1.288,2.684,6.959,6.959,0,0,1,.192,3.172c-.031.177-.068.354-.112.529A6.954,6.954,0,0,1,102.634,35a2.56,2.56,0,0,1-1.391.034,2.61,2.61,0,0,1-1.925-2.96q.018-.1.042-.2a2.6,2.6,0,0,1,1.536-1.768,3.854,3.854,0,0,1-.352-2.378c.017-.1.038-.2.063-.294a3.787,3.787,0,0,1,.146-.454,3.271,3.271,0,0,1-2.294-3.676c.014-.083.032-.166.053-.249a3.234,3.234,0,0,1,2.5-2.388,5.164,5.164,0,0,1,.066-1.175q.033-.19.081-.381a5.183,5.183,0,0,1,1.851-2.822,2.587,2.587,0,0,1-.422-1.914c.011-.066.026-.132.042-.2a2.6,2.6,0,0,1,3.158-1.883,2.614,2.614,0,0,1,1.961,2.6,5.026,5.026,0,0,1,3.859-2.323,2.816,2.816,0,0,1,5.5,1.177h0c-.012.071-.028.143-.046.215a2.8,2.8,0,0,1-.672,1.229,5,5,0,0,1,.525,3.218q-.033.191-.081.382a4.981,4.981,0,0,1-1.323,2.322,7.459,7.459,0,0,1,1.689,6.148" transform="translate(-61.283 -6.514)" fill="#f1f7f9"/>
            <path id="Path_21363" data-name="Path 21363" d="M98.28,22.9c.013-.076.029-.152.048-.228a2.985,2.985,0,0,1,2.525-2.228,4.924,4.924,0,0,1,.043-1.356c.021-.12.046-.24.077-.36a4.9,4.9,0,0,1,1.973-2.835,2.327,2.327,0,0,1-.539-1.922c.011-.059.023-.118.038-.177a2.329,2.329,0,0,1,4.553.965c-.01.059-.023.118-.038.178-.019.074-.042.146-.067.217.019,0,.038.007.058.012.081.02.158.049.238.073a4.736,4.736,0,0,1,4.195-2.855c.011-.061.021-.122.037-.183a2.545,2.545,0,0,1,4.975,1.055c-.011.065-.025.13-.042.194a2.528,2.528,0,0,1-.746,1.249,4.724,4.724,0,0,1,.6,3.219c-.021.12-.046.241-.077.361a4.715,4.715,0,0,1-1.437,2.372,7.24,7.24,0,0,1,1.8,6.119c-.032.184-.071.369-.117.553a7.219,7.219,0,0,1-1.326,2.7,6.647,6.647,0,0,1,.226,3.179q-.044.254-.108.509a6.683,6.683,0,0,1-12.813.493,2.326,2.326,0,0,1-3.211-2.532c.01-.059.023-.118.038-.178a2.328,2.328,0,0,1,1.668-1.681,3.582,3.582,0,0,1-.478-2.485c.015-.091.035-.182.058-.274a3.573,3.573,0,0,1,.264-.712c-.066-.012-.131-.023-.2-.039a2.986,2.986,0,0,1-2.21-3.4m-.534-.092h0A3.545,3.545,0,0,0,99.96,26.7c-.023.073-.043.146-.062.219-.026.1-.049.209-.067.314a4.126,4.126,0,0,0,.26,2.292,2.872,2.872,0,0,0-1.44,1.832c-.018.073-.034.146-.046.219a2.883,2.883,0,0,0,2.124,3.269,2.833,2.833,0,0,0,1.3.026,7.225,7.225,0,0,0,13.663-1.031c.046-.181.085-.366.117-.549a7.231,7.231,0,0,0-.161-3.164,7.728,7.728,0,0,0,1.253-2.671c.05-.2.092-.4.126-.593a7.724,7.724,0,0,0-1.594-6.18,5.26,5.26,0,0,0,1.223-2.269c.034-.133.062-.268.086-.4a5.277,5.277,0,0,0-.467-3.225,3.072,3.072,0,0,0,.609-1.2c.02-.078.036-.157.05-.235a3.1,3.1,0,0,0-2.284-3.515,3.088,3.088,0,0,0-3.693,2.039,5.3,5.3,0,0,0-3.453,1.849,2.87,2.87,0,0,0-5.579-.06c-.018.073-.034.146-.046.218a2.854,2.854,0,0,0,.332,1.9,5.45,5.45,0,0,0-1.757,2.815c-.034.132-.062.267-.086.4a5.413,5.413,0,0,0-.077,1.009A3.5,3.5,0,0,0,97.8,22.542c-.023.089-.042.179-.057.269" transform="translate(-60.836 -6.065)" fill="#d4e9ef"/>
            <path id="Path_21364" data-name="Path 21364" d="M110.954,77.549a1.688,1.688,0,1,1-2.381.172,1.688,1.688,0,0,1,2.381-.172" transform="translate(-67.353 -48.034)" fill="#fff"/>
            <path id="Path_21365" data-name="Path 21365" d="M111.333,78.716a1.959,1.959,0,1,1-.648-1.818,1.95,1.95,0,0,1,.648,1.818m-3.326-.58a1.417,1.417,0,1,0,.324-.684,1.417,1.417,0,0,0-.324.684" transform="translate(-66.908 -47.589)" fill="#d4e9ef"/>
            <path id="Path_21366" data-name="Path 21366" d="M98.628,32.009a1.688,1.688,0,1,1-2.381.172,1.688,1.688,0,0,1,2.381-.172" transform="translate(-59.678 -19.676)" fill="#fff"/>
            <path id="Path_21367" data-name="Path 21367" d="M99.007,33.175a1.964,1.964,0,1,1,.023-.478,1.978,1.978,0,0,1-.023.478m-3.328-.581a1.428,1.428,0,0,0-.017.346,1.41,1.41,0,1,0,.017-.346" transform="translate(-59.231 -19.229)" fill="#d4e9ef"/>
            <path id="Path_21368" data-name="Path 21368" d="M114.148,23.636a2.737,2.737,0,1,1-3.861.279,2.736,2.736,0,0,1,3.861-.279" transform="translate(-68.262 -14.303)" fill="#fff"/>
            <path id="Path_21369" data-name="Path 21369" d="M114.874,25.779a3.017,3.017,0,1,1,.036-.734,3.014,3.014,0,0,1-.036.734m-5.393-.941a2.465,2.465,0,1,0,.564-1.19,2.466,2.466,0,0,0-.564,1.19" transform="translate(-67.815 -13.858)" fill="#d4e9ef"/>
            <path id="Path_21370" data-name="Path 21370" d="M121.969,34.114a1.688,1.688,0,1,1-2.381.172,1.688,1.688,0,0,1,2.381-.172" transform="translate(-74.213 -20.987)" fill="#fff"/>
            <path id="Path_21371" data-name="Path 21371" d="M122.35,35.281a1.965,1.965,0,1,1,.023-.478,1.978,1.978,0,0,1-.023.478m-3.327-.581a1.417,1.417,0,1,0,.324-.684,1.417,1.417,0,0,0-.324.684" transform="translate(-73.767 -20.541)" fill="#d4e9ef"/>
            <path id="Path_21372" data-name="Path 21372" d="M118.787,71.31l.108-.011c.049.547.1,1.051.149,1.487l-.017,0a3.305,3.305,0,0,0-2.672-.409,6.715,6.715,0,0,0,1.137-.813,1.087,1.087,0,0,1,.738-.265c.185,0,.369.007.557.008" transform="translate(-72.456 -44.399)" fill="#bad2d7"/>
            <path id="Path_21373" data-name="Path 21373" d="M123.432,39.5a2.519,2.519,0,0,1,.152.575c.04.509-.537.587-.9.8-.15.087-.5.272-.658.393a.418.418,0,0,1-.572-.2,3.126,3.126,0,0,1-.254-1.836,1.061,1.061,0,0,1,2.024-.312.866.866,0,0,1,.041.078c.071.162.115.338.169.506" transform="translate(-75.441 -23.841)" fill="#c09582"/>
            <path id="Path_21374" data-name="Path 21374" d="M119.753,3.733a.34.34,0,0,0-.141.221.96.96,0,0,0,.106.45,3.842,3.842,0,0,0,.62.825.68.68,0,0,0,.4.262.708.708,0,0,0,.282-.034c.138-.055.08-.083.187-.147a.1.1,0,0,1,.069,0,7.327,7.327,0,0,1,.955,1.524c.083.145.164.282.241.413,1.962,3.276,2.526,2.9,2.878,5.172.1.621.567,2.82.762,3.45-.123-.3-.247-.623-.37-.975a11.807,11.807,0,0,1-.469-1.841c-.435-2.355-1.09-1.648-3.359-5.307-.513-.8-.822-1.433-1.025-1.508a.084.084,0,0,0-.064-.006l-.03.014a5.874,5.874,0,0,0-1.338-1.558.732.732,0,0,0-.106-.079l-.063.092a.464.464,0,0,0-.423.042,2.152,2.152,0,0,1,.151-.669c.133-.312.358-.478.68-.361l.012-.017Z" transform="translate(-74.02 -2.291)" fill="#c69d86"/>
            <path id="Path_21375" data-name="Path 21375" d="M105.7,28.549a26.887,26.887,0,0,0,.065-3.31A5.04,5.04,0,0,1,106,23.727l.025-.013a8.119,8.119,0,0,1,.546,1.29v0a1.542,1.542,0,0,0,.128.508l-.037.028c-.088.09.068.358.091.53a5.153,5.153,0,0,1-.112,1.828,4.6,4.6,0,0,0-.028.759,10.355,10.355,0,0,1-.547,4.033,13.819,13.819,0,0,0-.934,3.18l-.562.061c.137-1.494.713-2.665.384-3.917-.306-1.431.49-2.114.749-3.467" transform="translate(-65.115 -14.767)" fill="#c69d86"/>
            <path id="Path_21376" data-name="Path 21376" d="M108.191,27.686c-4.521,4.757-2.031,9.691-4.416,13.1a.31.31,0,0,0-.054.173l-.7-.035a21.882,21.882,0,0,0,.621-4.976,6.02,6.02,0,0,1-.038-1.513l.562-.061a13.792,13.792,0,0,1,.935-3.18,10.367,10.367,0,0,0,.547-4.033,4.634,4.634,0,0,1,.028-.759,5.138,5.138,0,0,0,.112-1.828c-.022-.171-.178-.44-.091-.53,0,0,.068-.194,1.092.077.26.012.44-.06.477-.3a3.007,3.007,0,0,0-.434-1.7.771.771,0,0,0-1.273-.047c0-.03,0-.045,0-.045.01-.043.149-.149.165-.187a.961.961,0,0,1,1.087-.516,1.117,1.117,0,0,1,.447.2,4.752,4.752,0,0,1,1.367,2.057,6.811,6.811,0,0,1,.569,3.037c0,.06,0,.122,0,.187-.366.319-.726.593-1,.865" transform="translate(-64.152 -13.272)" fill="#c69d86"/>
            <path id="Path_21377" data-name="Path 21377" d="M86.815,73.332a.306.306,0,0,0,.17.281,4.181,4.181,0,0,0,4.158.011h0a3.307,3.307,0,0,1,2.672.409l.017,0c.019.151.038.29.059.423a4.021,4.021,0,0,0,.375,1.045,4.388,4.388,0,0,1-1.206,1.3,1.136,1.136,0,0,0-.326.38c-1.375,2.637-2.911,10.189-4.4,16.529-4.306-1.056-10.075,3.018-12.462.244,3.366-6.7,8.524-16.042,9.69-18.878a15.636,15.636,0,0,0,.552-1.775Z" transform="translate(-47.246 -45.643)" fill="#c69d86"/>
            <path id="Path_21378" data-name="Path 21378" d="M121.53,20.07a2.5,2.5,0,0,0-.152-.575c-.054-.168-.1-.344-.169-.506a.871.871,0,0,0-.041-.079,1.061,1.061,0,0,0-2.024.312,3.126,3.126,0,0,0,.254,1.836.418.418,0,0,0,.572.2c.159-.121.508-.306.659-.393.365-.212.941-.291.9-.8m.1-.615c.072.314.146.588.224.838l.09-.028a3.15,3.15,0,0,1,.189-1.323c.238-.955-.235-1.468-.668-2.476-.476-1.21.009-1.352-.862-2.776-.165-.272-.381-.592-.664-.974a5.1,5.1,0,0,1-.746-1.766,1.686,1.686,0,0,0-.262-.493,4.583,4.583,0,0,1-.953-1.937,3.75,3.75,0,0,1-.105-.563c-.08-.73.022-1.443.358-1.668a.462.462,0,0,1,.423-.042l.063-.092a.7.7,0,0,1,.106.078c-.141-.028-.218.171-.228.232a.917.917,0,0,0,.109.449,3.743,3.743,0,0,0,.616.826.673.673,0,0,0,.4.262A.556.556,0,0,0,120,7.95c.193-.254.258-.166.258-.166.2.076.512.711,1.025,1.508,2.27,3.659,2.924,2.952,3.359,5.307a11.8,11.8,0,0,0,.469,1.841c.124.352.248.673.37.975,1.316,3.233,2.461,3.814,2.468,7.271a23.8,23.8,0,0,0,.868,3.888,11.7,11.7,0,0,0,1.264,2.72,7.183,7.183,0,0,0,1.731,1.89c3.148,2.356,17.816,11.061,18.71,11.2-1.29,4.109-4.178,7.128-8.5,9.162C139.871,51.929,127.49,37.759,124.5,37.1a.009.009,0,0,1-.006,0c-1.843-.065-3.394-2-4.084-3.405a4.032,4.032,0,0,1-.374-1.045c-.021-.132-.041-.271-.059-.422-.053-.436-.1-.941-.149-1.487a32.158,32.158,0,0,0-.786-5.666c-.118-.388-.432-1.313-.57-1.7a6.272,6.272,0,0,1-.286-3.5c.588-2.719,2.967-2.366,3.45-.421" transform="translate(-73.387 -3.833)" fill="#cdaa94"/>
            <path id="Path_21379" data-name="Path 21379" d="M120.934,3.614l.055-.072a5.9,5.9,0,0,1,1.447,1.684.308.308,0,0,1-.187.147.72.72,0,0,1-.281.034.682.682,0,0,1-.4-.262,3.861,3.861,0,0,1-.62-.825.97.97,0,0,1-.106-.45,2.105,2.105,0,0,1,.1-.255" transform="translate(-75.245 -2.206)" fill="#c09582"/>
            <path id="Path_21380" data-name="Path 21380" d="M120.921,7.984a.672.672,0,0,1-.4-.262A3.722,3.722,0,0,1,119.9,6.9a.932.932,0,0,1-.13-.453.583.583,0,0,1,.147-.318,5.031,5.031,0,0,1,1.44,1.648s-.017.083-.164.158a.557.557,0,0,1-.272.052" transform="translate(-74.581 -3.814)" fill="#c09582"/>
            <path id="Path_21381" data-name="Path 21381" d="M110.959,24.826a5.961,5.961,0,0,0-1.055-.1,1.547,1.547,0,0,1-.128-.508v0a7.764,7.764,0,0,1-.052-1.234l.008-.235c.106-.423.918-.405,1.272.091a3.009,3.009,0,0,1,.434,1.7c-.037.238-.217.309-.477.3" transform="translate(-68.322 -13.975)" fill="#c09582"/>
            <path id="Path_21382" data-name="Path 21382" d="M123.6,39.356a2.214,2.214,0,0,1,.14.523c.034.463-.509.538-.853.733-.142.08-.472.251-.622.361a.4.4,0,0,1-.536-.183,2.746,2.746,0,0,1-.229-1.669,1.009,1.009,0,0,1,1.906-.3.808.808,0,0,1,.038.071,4.681,4.681,0,0,1,.157.46" transform="translate(-75.628 -23.822)" fill="#e1cabb"/>
            <path id="Path_21383" data-name="Path 21383" d="M120.92,3.614l.053-.068a5.47,5.47,0,0,1,1.383,1.565.3.3,0,0,1-.181.138.709.709,0,0,1-.271.032.649.649,0,0,1-.387-.242,3.55,3.55,0,0,1-.591-.767.86.86,0,0,1-.1-.42,1.97,1.97,0,0,1,.094-.238" transform="translate(-75.238 -2.208)" fill="#e1cabb"/>
            <path id="Path_21384" data-name="Path 21384" d="M120.849,7.826a.636.636,0,0,1-.386-.237,3.362,3.362,0,0,1-.585-.753.819.819,0,0,1-.121-.415.535.535,0,0,1,.144-.293,4.568,4.568,0,0,1,1.368,1.5s-.018.077-.159.146a.56.56,0,0,1-.261.05" transform="translate(-74.572 -3.817)" fill="#e1cabb"/>
            <path id="Path_21385" data-name="Path 21385" d="M110.909,24.647a7.076,7.076,0,0,0-1.1-.11,1.288,1.288,0,0,1-.076-.445l0-.032a6.4,6.4,0,0,1-.036-1.118l.011-.22c.112-.394.921-.388,1.268.069a2.6,2.6,0,0,1,.411,1.572c-.04.222-.22.291-.48.283" transform="translate(-68.305 -13.972)" fill="#e1cabb"/>
            <path id="Path_21386" data-name="Path 21386" d="M109.525,24.706a9.845,9.845,0,0,1-.045-1.422v0c0-.03,0-.045,0-.045a3.161,3.161,0,0,0-.164.905c.074.18.145.367.209.565" transform="translate(-68.073 -14.469)" fill="#ccdee1"/>
            <path id="Path_21387" data-name="Path 21387" d="M118.866,5.563a.464.464,0,0,1,.423-.041l.063-.092a.732.732,0,0,1,.106.079,5.887,5.887,0,0,1,1.336,1.554c.069-.039.1,0,.1,0,.2.075.512.711,1.026,1.508,2.269,3.659,2.924,2.952,3.359,5.307a11.76,11.76,0,0,0,.469,1.841c.123.351.247.673.37.974-.195-.63-.667-2.829-.762-3.45a6.327,6.327,0,0,0-.287-1.213c-.83-1.335-2.651-2.954-3.757-5.078-.168-.241-.323-.452-.469-.639a.6.6,0,0,1-.1,0,.681.681,0,0,1-.4-.262,3.829,3.829,0,0,1-.62-.825c-.006-.012-.015-.033-.023-.052A1.041,1.041,0,0,0,118.978,5a2.324,2.324,0,0,0-.112.563" transform="translate(-74.02 -3.108)" fill="#ba8b7a"/>
            <path id="Path_21388" data-name="Path 21388" d="M107.125,26.2v0c-.065-.2-.135-.384-.209-.565a22.279,22.279,0,0,1-.069,3.372c-.135.629.039,1.511-.122,2.829s-.87,2.813-1.124,4.269a5.4,5.4,0,0,0-.139.987l.224-.025a9.455,9.455,0,0,1,.333-1.484c.16-.535.365-1.105.6-1.7a10.367,10.367,0,0,0,.547-4.032,4.556,4.556,0,0,1,.028-.759,5.156,5.156,0,0,0,.112-1.828c-.022-.171-.178-.44-.091-.53l0-.006,0,0a.11.11,0,0,1,.029-.022,1.554,1.554,0,0,1-.127-.5" transform="translate(-65.672 -15.963)" fill="#ba8b7a"/>
            <path id="Path_21389" data-name="Path 21389" d="M110.121,28.536l0,0v.006a.029.029,0,0,1,.006-.009" transform="translate(-68.57 -17.77)" fill="#c69d86"/>
            <path id="Path_21390" data-name="Path 21390" d="M105.461,53.512c0,.464.215.187.224-.024A9.495,9.495,0,0,1,106.018,52a9.495,9.495,0,0,0-.333,1.485Z" transform="translate(-65.672 -32.383)" fill="#c69d86"/>
            <path id="Path_21391" data-name="Path 21391" d="M110.162,28.481l0,0a.1.1,0,0,0-.029.022Z" transform="translate(-68.58 -17.734)" fill="#c69d86"/>
            <path id="Path_21392" data-name="Path 21392" d="M110.115,28.514l.037-.028-.031.019a.046.046,0,0,0-.006.009" transform="translate(-68.57 -17.739)" fill="#c69d86"/>
            <path id="Path_21393" data-name="Path 21393" d="M105.241,80.639c.978,2.039-4.369,13.992-7.5,16a22.1,22.1,0,0,0,4.211,1.476c1.493-6.339,3.028-13.891,4.4-16.529a1.127,1.127,0,0,1,.325-.38,4.48,4.48,0,0,0,.874-.832c-1.146,1.2-2.211.486-2.315.269" transform="translate(-60.866 -50.048)" fill="#ba8b7a"/>
            <path id="Path_21394" data-name="Path 21394" d="M133.656,87.865l-.057-.015.057.015" transform="translate(-83.194 -54.705)" fill="#cdaa94"/>
            <path id="Path_21395" data-name="Path 21395" d="M137.379,87.949l-.055.013.055-.013" transform="translate(-85.514 -54.767)" fill="#cdaa94"/>
            <path id="Path_21396" data-name="Path 21396" d="M136.825,87.983a2.974,2.974,0,0,1-.3.052,2.773,2.773,0,0,0,.3-.052" transform="translate(-85.015 -54.788)" fill="#cdaa94"/>
            <path id="Path_21397" data-name="Path 21397" d="M137.75,86.426a3.438,3.438,0,0,1-2.218.661c3.028.724,15.355,14.831,17.5,16.439.617-.291,1.2-.6,1.76-.935-3.138-.951-18.086-14.2-17.043-16.166" transform="translate(-84.398 -53.819)" fill="#c09582"/>
            <path id="Path_21398" data-name="Path 21398" d="M128.469,42.911a18.131,18.131,0,0,1,1.1,3.683c.111,3.1,2.085,3.428,2.663,6.6.23.719.764-.038.454-.739-.933-1.9-2.715-3.255-2.8-5.688.014-1.537-.526-2.591-1.334-4.286a1.291,1.291,0,0,0,.014.4Z" transform="translate(-79.999 -26.452)" fill="#ba8b7a"/>
            <path id="Path_21399" data-name="Path 21399" d="M135.475,88.137l.022.006a2.7,2.7,0,0,0,.374-.021,2.692,2.692,0,0,1-.4.015" transform="translate(-84.362 -54.875)" fill="#cdaa94"/>
            <path id="Path_21400" data-name="Path 21400" d="M137.471,87.791a2.863,2.863,0,0,0,.311-.1c-.105.036-.209.07-.311.1" transform="translate(-85.605 -54.61)" fill="#cdaa94"/>
            <path id="Path_21401" data-name="Path 21401" d="M123.977,10.453l0,0,.03-.014a.084.084,0,0,1,.063.006s-.027-.035-.1,0" transform="translate(-77.202 -6.498)" fill="#cdaa94"/>
            <path id="Path_21402" data-name="Path 21402" d="M7.869,50.122A8.721,8.721,0,0,0,.042,59.653L.921,68.6a2.053,2.053,0,0,0,2.243,1.842l22.667-2.226a2.053,2.053,0,0,0,1.842-2.243L26.8,57.026A8.722,8.722,0,0,0,17.263,49.2Zm11.383,1.362a6.508,6.508,0,0,1,5.334,5.76l.835,8.508a.275.275,0,0,1-.247.3l-1.646.161a.276.276,0,0,1-.3-.247l-.866-8.819a8.219,8.219,0,0,0-3.11-5.665" transform="translate(0 -30.611)" fill="#fff"/>
            <path id="Path_21403" data-name="Path 21403" d="M27.29,62.036l.879,8.952a2.053,2.053,0,0,1-1.845,2.242L3.656,75.455a2.046,2.046,0,0,1-2.242-1.841L.535,64.663a8.721,8.721,0,0,1,7.826-9.53l9.394-.922a8.725,8.725,0,0,1,9.535,7.826m-1.374,8.727-.836-8.51a6.513,6.513,0,0,0-5.334-5.758,8.226,8.226,0,0,1,3.108,5.664l.866,8.819a.277.277,0,0,0,.3.247l1.648-.162a.277.277,0,0,0,.247-.3" transform="translate(-0.307 -33.731)" fill="#d66f2c"/>
            <path id="Path_21404" data-name="Path 21404" d="M56.858,66.094l.836,8.51a.276.276,0,0,1-.247.3l-1.648.162a.277.277,0,0,1-.3-.247L54.632,66a8.225,8.225,0,0,0-3.108-5.664,6.511,6.511,0,0,1,5.334,5.757" transform="translate(-32.085 -37.573)" fill="#fff"/>
            <path id="Path_21405" data-name="Path 21405" d="M34.276,3.472,35.64,2.107h0a.147.147,0,0,0,0-.208C34.062.367,32.336-.32,27.628.142L15.691,1.314a.144.144,0,0,0-.129.157l.287,2.922a.143.143,0,0,0,.084.117l3.958,1.8.291,2.969-.984.1a.149.149,0,0,0-.134.163l.166,1.688-2.535.249a.149.149,0,0,0-.134.163l.775,7.893,9.843-.966L26.4,10.673a.149.149,0,0,0-.163-.134l-2.536.249L23.539,9.1a.149.149,0,0,0-.163-.134l-.984.1L22.1,6.094l2.834-2.034a1.635,1.635,0,0,0,.674-1.488l2.237-.22c4.475-.439,5.365.264,6.228,1.121a.144.144,0,0,0,.2,0" transform="translate(-9.69 0)" fill="#d66f2c"/>
            <path id="Path_21406" data-name="Path 21406" d="M70.721,24.391a3.582,3.582,0,0,1-3.456-3.779c.091-2.051,3.495-6.415,3.64-6.6l.3-.378.261.4c.128.2,3.129,4.846,3.038,6.9a3.583,3.583,0,0,1-3.779,3.456" transform="translate(-41.884 -8.49)" fill="#6ab2ce"/>
            <path id="Path_21407" data-name="Path 21407" d="M70.607,13.25s3.07,4.731,2.982,6.7a3.278,3.278,0,0,1-6.55-.292c.088-1.965,3.567-6.4,3.567-6.4m-.38,8.514a1.932,1.932,0,0,0,2.053-1.877l-.655-.029a1.315,1.315,0,0,1-1.368,1.251l-.029.655m.433-9.694-.593.756c-.37.472-3.618,4.673-3.713,6.8a3.965,3.965,0,0,0,7.921.354c.095-2.123-2.766-6.6-3.092-7.1Z" transform="translate(-41.317 -7.516)" fill="#fff"/>
            <path id="Path_21408" data-name="Path 21408" d="M70.721,24.391a3.582,3.582,0,0,1-3.456-3.779c.091-2.051,3.495-6.415,3.64-6.6l.3-.378.261.4c.128.2,3.129,4.846,3.038,6.9a3.583,3.583,0,0,1-3.779,3.456" transform="translate(-41.884 -8.49)" fill="#6ab2ce"/>
            <path id="Path_21409" data-name="Path 21409" d="M70.607,13.25s3.07,4.731,2.982,6.7a3.278,3.278,0,0,1-6.55-.292c.088-1.965,3.567-6.4,3.567-6.4m-.38,8.514a1.932,1.932,0,0,0,2.053-1.877l-.655-.029a1.315,1.315,0,0,1-1.368,1.251l-.029.655m.433-9.694-.593.756c-.37.472-3.618,4.673-3.713,6.8a3.965,3.965,0,0,0,7.921.354c.095-2.123-2.766-6.6-3.092-7.1Z" transform="translate(-41.317 -7.516)" fill="#fff"/>
          </g>
        </g>
      </g>
    </g>
  </g>
</svg>
